<svg width="70" height="70" viewBox="0 0 70 70" fill="none" xmlns="http://www.w3.org/2000/svg">
<circle cx="35" cy="35" r="31" stroke="#896B3B" stroke-width="2"/>
<path d="M40.7192 47.2004C40.2807 47.2004 40.1604 47.4009 40.3585 47.8017C40.3938 47.8796 40.4434 47.9503 40.4646 48.0281C40.5848 48.396 40.889 48.3252 41.1508 48.2969C41.4549 48.2686 41.3347 48.0069 41.3347 47.8371C41.3418 47.1226 41.4125 47.2004 40.7122 47.2004M21.1737 47.2004C21.0322 47.2004 20.8836 47.2004 20.7422 47.2004C20.6361 47.2004 20.5441 47.2358 20.537 47.3561C20.5299 47.6178 20.5299 47.8866 20.537 48.1484C20.537 48.2686 20.629 48.2969 20.7351 48.3111C21.1737 48.3818 21.2586 48.3252 21.5274 47.7876C21.8386 47.158 21.8882 47.2004 21.1737 47.2075M47.765 33.873C47.4608 33.873 47.1637 33.873 46.8595 33.873C46.6968 33.873 46.6048 33.9366 46.6119 34.1064C46.619 34.5026 46.5695 34.8987 46.6756 35.2948C46.8241 35.8537 47.3901 36.2074 47.956 36.0871C48.5573 35.9598 48.8685 35.5071 48.8756 34.7572C48.885 34.163 48.5974 33.8659 48.0126 33.8659H47.7579L47.765 33.873ZM47.7721 39.0936C46.5553 39.0936 45.3315 39.0936 44.1148 39.0936C43.7257 39.0936 43.662 39.1926 43.8389 39.5393C44.0653 39.9849 44.4473 40.1972 44.9283 40.1972C46.81 40.2042 48.6917 40.2113 50.5734 40.1972C51.0827 40.1972 51.4789 39.9496 51.6769 39.4615C51.776 39.228 51.7477 39.0865 51.4223 39.0865C50.2055 39.1007 48.9817 39.0865 47.765 39.0865M40.1745 37.318C40.1745 35.882 40.1745 34.446 40.1745 33.0099C40.1745 32.3308 39.9835 32.1327 39.3257 32.1327C37.0054 32.1327 34.6922 32.1327 32.3719 32.1327C31.7281 32.1327 31.5371 32.3379 31.5371 32.9816C31.5371 35.882 31.5371 38.7753 31.5371 41.6756C31.5371 42.3194 31.7423 42.5104 32.386 42.5174C34.7063 42.5174 37.0195 42.5174 39.3398 42.5174C39.9765 42.5174 40.1745 42.3123 40.1745 41.6686C40.1745 40.2184 40.1745 38.7682 40.1745 37.3251M21.6759 37.3251C21.6759 38.7753 21.6759 40.2254 21.6759 41.6686C21.6759 42.3123 21.874 42.5104 22.5248 42.5174C24.8451 42.5174 27.1583 42.5174 29.4786 42.5174C30.1223 42.5174 30.3275 42.3194 30.3275 41.6686C30.3275 38.7682 30.3275 35.8749 30.3275 32.9746C30.3275 32.3308 30.1294 32.1327 29.4786 32.1257C27.1583 32.1257 24.8451 32.1257 22.5248 32.1257C21.8811 32.1257 21.683 32.3237 21.6759 32.9746C21.6759 34.4247 21.6759 35.8749 21.6759 37.318M30.9076 45.9908H32.9378C36.0504 45.9908 39.17 45.9908 42.2826 45.9908C43.1456 45.9908 43.6408 45.5593 43.655 44.7458C43.6762 43.6139 43.655 42.475 43.662 41.3431C43.662 41.1875 43.6125 41.0673 43.4852 40.9753C42.5656 40.3316 42.417 39.3907 42.5161 38.3721C42.5443 38.0891 42.7353 37.9264 43.0254 37.891C43.1456 37.8769 43.2659 37.8769 43.3862 37.891C43.5842 37.9052 43.662 37.8132 43.6691 37.6151C43.6903 37.0492 43.4569 36.7945 42.8768 36.7804C42.6717 36.7804 42.4665 36.7804 42.2614 36.7804C41.5894 36.7804 41.3984 36.9714 41.3984 37.6434C41.3984 39.0653 41.3984 40.4943 41.3984 41.9161C41.3984 43.0126 40.6768 43.7342 39.5945 43.7342C37.1044 43.7342 34.6214 43.7342 32.1314 43.7342C31.7847 43.7342 31.4593 43.6705 31.1693 43.4795C30.9995 43.3734 30.8722 43.3734 30.7095 43.4795C30.4194 43.6705 30.094 43.7342 29.7474 43.7271C27.2715 43.7271 24.7956 43.7271 22.3197 43.7271C21.202 43.7271 20.4875 43.0126 20.4804 41.902C20.4804 40.4872 20.4804 39.0795 20.4804 37.6646C20.4804 36.9502 20.2965 36.7733 19.5749 36.7733C19.3557 36.7733 19.1434 36.7733 18.9241 36.7733C18.4573 36.7875 18.2238 36.9997 18.2238 37.4666C18.2167 39.893 18.2097 42.3194 18.2238 44.7458C18.2238 45.5168 18.7048 45.9625 19.483 45.9979C19.6032 45.9979 19.7235 45.9979 19.8438 45.9979H30.9288L30.9076 45.9908ZM26.0265 30.916C27.2574 30.916 28.4882 30.916 29.7191 30.916C30.0657 30.916 30.3912 30.9726 30.6883 31.1636C30.851 31.2697 30.9783 31.2839 31.1481 31.1707C31.4452 30.9726 31.7847 30.916 32.1455 30.916C34.6214 30.916 37.0973 30.916 39.5733 30.916C40.6627 30.916 41.3842 31.6376 41.3842 32.734C41.3842 33.5405 41.3913 34.354 41.3842 35.1604C41.3842 35.4646 41.4054 35.6132 41.7874 35.5707C42.2543 35.5141 42.7283 35.5495 43.2022 35.5566C44.1006 35.5707 44.8576 36.3206 44.8717 37.219C44.8859 37.9264 44.7656 37.8698 45.5367 37.8698C45.9611 37.8698 46.3856 37.8698 46.8029 37.8698C46.9444 37.8698 47.1213 37.9052 47.1283 37.6859C47.1425 37.5019 47.1849 37.2968 46.9303 37.2048C46.5624 37.0704 46.237 36.8582 45.9823 36.5611C45.6145 36.1367 45.3952 35.6556 45.3952 35.0826C45.3952 34.4884 45.3952 33.9013 45.3952 33.307C45.3952 32.8755 45.6145 32.6633 46.0389 32.6562C47.1778 32.6562 48.3097 32.6562 49.4486 32.6562C49.8589 32.6562 50.0711 32.8755 50.0782 33.2858C50.0853 33.9225 50.1136 34.5662 50.0711 35.2029C50.0075 36.1296 49.4981 36.7662 48.6634 37.1553C48.529 37.219 48.3521 37.2331 48.338 37.4454C48.3168 37.7071 48.338 37.8769 48.6917 37.8698C49.866 37.8486 51.0332 37.8627 52.2075 37.8627C52.8017 37.8627 52.9503 38.0466 52.9856 38.6479C53.021 39.4402 52.8795 40.1618 52.2782 40.7348C51.8326 41.1592 51.3091 41.3997 50.6795 41.3927C50.0145 41.3856 49.3496 41.3997 48.6846 41.3927C48.4158 41.3927 48.3309 41.4846 48.3309 41.7464C48.338 43.812 48.338 45.8776 48.3309 47.9432C48.3309 48.2403 48.4441 48.3181 48.7129 48.304C49.0383 48.2899 49.3637 48.304 49.6891 48.304C49.7599 48.304 49.8518 48.2828 49.9013 48.3181C50.255 48.5657 50.0075 48.9336 50.0641 49.2448C50.0994 49.4146 50.0004 49.5137 49.8094 49.5137C48.4229 49.5137 47.0293 49.5137 45.6428 49.5137C45.4589 49.5137 45.3952 49.4288 45.381 49.2519C45.2961 48.3111 45.2961 48.304 46.2299 48.304C47.1637 48.304 47.1213 48.304 47.1213 47.4056C47.1213 45.5451 47.1213 43.6847 47.1213 41.8242C47.1213 41.4988 47.0434 41.3714 46.6968 41.3856C46.1875 41.4139 45.6852 41.3997 45.1759 41.3856C44.9212 41.3785 44.8363 41.4705 44.8434 41.7251C44.8505 42.765 44.8434 43.8049 44.8434 44.8377C44.8434 46.0545 44.0157 47.0095 42.8061 47.1722C42.5797 47.2005 42.5231 47.2924 42.5231 47.4905C42.5302 47.9361 42.5302 48.3818 42.5231 48.8275C42.5231 49.2802 42.3109 49.4854 41.8511 49.4924C41.3205 49.4924 40.79 49.4854 40.2594 49.4924C39.927 49.4995 39.7147 49.351 39.5662 49.068C39.2974 48.5304 39.0215 47.9927 38.7597 47.448C38.6607 47.2429 38.5334 47.1722 38.307 47.1722C33.3693 47.1722 28.4246 47.1722 23.4869 47.1722C23.2605 47.1722 23.1332 47.25 23.0342 47.448C22.7795 47.9786 22.5036 48.5021 22.2419 49.0397C22.0862 49.358 21.8599 49.5137 21.4991 49.4995C20.9827 49.4783 20.4592 49.4995 19.9428 49.4995C19.483 49.4995 19.2849 49.2873 19.2778 48.8346C19.2778 48.3889 19.2708 47.9432 19.2778 47.4976C19.2778 47.2924 19.2212 47.2075 18.9949 47.1792C17.8347 47.0236 17 46.0686 17 44.8519C17 42.3477 17 39.8505 17 37.3534C17 36.2852 17.7286 35.5566 18.7968 35.5566C19.2566 35.5566 19.7164 35.5283 20.1692 35.5707C20.4663 35.599 20.4804 35.4858 20.4804 35.2524C20.4734 34.3964 20.4804 33.5405 20.4804 32.6775C20.4804 31.6588 21.2161 30.916 22.2348 30.916C23.501 30.916 24.7744 30.916 26.0406 30.916" fill="#896B3B"/>
<path d="M47.1918 18.2184C44.4753 18.2962 42.5724 20.3123 42.5795 22.8236C42.5937 25.4763 44.6239 27.4358 47.2342 27.4075C49.795 27.3793 51.7545 25.3914 51.7545 22.8377C51.7545 20.1779 49.7243 18.3033 47.1918 18.2184ZM47.1564 17.0016C50.3185 16.9238 52.9713 19.6261 52.9996 22.7599C53.0279 25.9574 50.3751 28.6384 47.2059 28.6597C43.966 28.6809 41.3133 25.9574 41.3203 22.8165C41.3415 19.5907 44.058 16.9309 47.1635 17.0016" fill="#896B3B"/>
<path d="M23.9539 35.6067C23.5719 35.6067 23.3809 35.3968 23.3809 34.9771C23.3809 34.5574 23.5931 34.3664 24.0175 34.4041C24.442 34.4418 24.633 34.6658 24.5905 35.0761C24.5481 35.4864 24.3382 35.6656 23.9609 35.6137" fill="#896B3B"/>
<path d="M27.4341 34.9697C27.4341 34.583 27.6439 34.3896 28.0636 34.3896C28.4834 34.3896 28.6767 34.5995 28.6437 35.0192C28.6107 35.439 28.389 35.6323 27.9788 35.5993C27.5685 35.5663 27.3869 35.3564 27.4341 34.9697Z" fill="#896B3B"/>
<path d="M23.3809 39.6033C23.3809 39.2213 23.5931 39.0303 24.0175 39.0303C24.442 39.0303 24.633 39.2425 24.5905 39.6669C24.5481 40.0914 24.3359 40.2824 23.9539 40.2399C23.5719 40.1975 23.3809 39.9853 23.3809 39.6033Z" fill="#896B3B"/>
<path d="M28.644 39.6101C28.644 40.0298 28.4388 40.2397 28.0285 40.2397C27.6182 40.2397 27.4202 40.0345 27.4343 39.6242C27.4484 39.2139 27.6536 39.0159 28.0497 39.03C28.4459 39.0442 28.644 39.2375 28.644 39.6101Z" fill="#896B3B"/>
<path d="M33.871 34.3967C34.253 34.3967 34.4417 34.6089 34.4369 35.0334C34.4322 35.4578 34.22 35.6465 33.8003 35.5993C33.3806 35.5521 33.1919 35.3399 33.2344 34.9626C33.2768 34.5854 33.489 34.3944 33.871 34.3896" fill="#896B3B"/>
<path d="M37.9252 34.3969C38.3119 34.3969 38.5053 34.6068 38.5053 35.0265C38.5053 35.4463 38.2954 35.6396 37.8757 35.6066C37.4559 35.5736 37.2626 35.3519 37.2956 34.9416C37.3286 34.5313 37.5385 34.3498 37.9252 34.3969Z" fill="#896B3B"/>
<path d="M34.4451 39.6392C34.4451 40.0401 34.2423 40.2405 33.8367 40.2405C33.4311 40.2405 33.2307 40.0259 33.2354 39.5968C33.2401 39.1676 33.4547 38.979 33.8792 39.0309C34.3036 39.0827 34.4923 39.2855 34.4451 39.6392Z" fill="#896B3B"/>
<path d="M37.9184 39.0303C38.3098 39.0303 38.5056 39.2378 38.5056 39.6528C38.5056 40.3036 38.548 40.2329 37.8477 40.2399C37.2959 40.2399 37.2959 40.2399 37.2959 39.582C37.2959 39.2142 37.5034 39.0303 37.9184 39.0303Z" fill="#896B3B"/>
<path d="M47.192 19.9579C45.6004 20.0216 44.3412 21.1393 44.32 22.8159C44.3058 24.3792 45.4731 25.6455 47.1284 25.6738C48.6776 25.7021 50.0075 24.549 50.0146 22.8159C50.0217 21.2666 48.8686 20.057 47.185 19.9579M51.2455 22.8017C51.2455 25.1008 49.4628 26.9046 47.185 26.9046C44.8788 26.9046 43.082 25.122 43.082 22.8442C43.082 20.538 44.8576 18.7412 47.1425 18.7412C49.4487 18.7412 51.2455 20.5168 51.2525 22.8017" fill="#896B3B"/>
<path d="M47.8571 23.4242C47.6308 23.4242 47.3973 23.4313 47.1709 23.4242C46.7889 23.41 46.5767 23.1978 46.5696 22.8087C46.5626 22.3419 46.5838 21.8679 46.5626 21.401C46.5414 20.9766 46.8455 21.0261 47.0719 21.0685C47.3195 21.111 47.7581 20.8209 47.7722 21.3869C47.7722 21.5708 47.7793 21.7476 47.7722 21.9316C47.7581 22.1509 47.8642 22.2428 48.0764 22.2216C48.1118 22.2216 48.1472 22.2216 48.1825 22.2216C48.416 22.2499 48.7414 22.1084 48.8687 22.3065C49.0385 22.5753 48.9324 22.9361 48.9253 23.2615C48.9253 23.4313 48.7767 23.4313 48.6565 23.4313C48.3948 23.4313 48.1259 23.4313 47.8642 23.4313" fill="#896B3B"/>
</svg>
