<svg width="70" height="70" viewBox="0 0 70 70" fill="none" xmlns="http://www.w3.org/2000/svg">
<circle cx="35" cy="35" r="31" stroke="#896B3B" stroke-width="2"/>
<path d="M34.9207 38.9145C34.9207 38.6418 34.9207 38.369 34.9207 38.0963C34.9279 37.8954 34.8489 37.8092 34.6408 37.8092C34.1025 37.8164 33.5714 37.8092 33.0331 37.8092C32.8465 37.8092 32.7604 37.881 32.7676 38.0676C32.7676 38.6059 32.7676 39.137 32.7676 39.6753C32.7676 39.8762 32.8393 39.9624 33.0475 39.9624C33.5857 39.9552 34.1169 39.9624 34.6551 39.9624C34.8417 39.9624 34.9279 39.8906 34.9207 39.704C34.9207 39.4456 34.9207 39.1801 34.9207 38.9145ZM31.6264 38.8786C31.6264 38.6202 31.6264 38.3547 31.6264 38.0963C31.6264 37.8954 31.5546 37.8092 31.3465 37.8092C30.8226 37.8164 30.2987 37.8164 29.7747 37.8092C29.5594 37.8092 29.4661 37.881 29.4733 38.1035C29.4805 38.6274 29.4805 39.1513 29.4733 39.6753C29.4733 39.8762 29.5451 39.9624 29.7532 39.9624C30.2915 39.9552 30.8226 39.9624 31.3609 39.9624C31.5475 39.9624 31.6336 39.8906 31.6264 39.704C31.6192 39.4312 31.6264 39.1585 31.6264 38.8858M27.2915 37.8164C27.0331 37.8164 26.7675 37.8236 26.502 37.8164C26.2723 37.8092 26.1718 37.881 26.179 38.125C26.1934 38.6346 26.1862 39.1513 26.179 39.6609C26.179 39.8762 26.2436 39.9767 26.4733 39.9695C26.9972 39.9552 27.5211 39.9624 28.0451 39.9695C28.2388 39.9695 28.3393 39.9121 28.3321 39.6968C28.325 39.1585 28.325 38.6274 28.3321 38.0891C28.3321 37.8738 28.2388 37.8092 28.0451 37.8164C27.7939 37.8236 27.5427 37.8164 27.2915 37.8164ZM27.2915 34.5221C27.0259 34.5221 26.7675 34.5293 26.502 34.5221C26.2723 34.5078 26.1718 34.5867 26.179 34.8308C26.1934 35.3403 26.1862 35.8571 26.179 36.3666C26.179 36.582 26.2436 36.6824 26.4733 36.6753C26.9972 36.6681 27.5211 36.6681 28.0451 36.6753C28.246 36.6753 28.3393 36.6178 28.3321 36.4025C28.325 35.8642 28.325 35.3331 28.3321 34.7949C28.3321 34.5796 28.2388 34.515 28.0451 34.5221C27.7939 34.5293 27.5427 34.5221 27.2915 34.5221ZM44.7963 35.5987C44.7963 35.326 44.7963 35.0532 44.7963 34.7805C44.7963 34.5867 44.7174 34.515 44.5308 34.5221C43.9925 34.5221 43.4614 34.5293 42.9231 34.5221C42.715 34.5221 42.6432 34.6083 42.6432 34.8092C42.6504 35.3475 42.6432 35.8786 42.6432 36.4169C42.6432 36.6107 42.7222 36.6824 42.9088 36.6753C43.447 36.6753 43.9781 36.6681 44.5164 36.6753C44.7246 36.6753 44.8035 36.5963 44.7963 36.3882C44.7891 36.1298 44.7963 35.8642 44.7963 35.5987ZM41.5021 35.6202C41.5021 35.3475 41.4949 35.0748 41.5021 34.802C41.5092 34.6011 41.4303 34.515 41.2221 34.515C40.6839 34.5221 40.1528 34.515 39.6145 34.515C39.4279 34.515 39.3418 34.5867 39.3489 34.7733C39.3489 35.3116 39.3489 35.8427 39.3489 36.381C39.3489 36.582 39.4207 36.6681 39.6288 36.6681C40.1671 36.6609 40.6982 36.6681 41.2365 36.6681C41.4231 36.6681 41.5092 36.5963 41.5021 36.4097C41.5021 36.1513 41.5021 35.8858 41.5021 35.6202ZM38.2078 35.6202C38.2078 35.3475 38.2078 35.0748 38.2078 34.802C38.2078 34.6011 38.136 34.515 37.9279 34.515C37.3896 34.5221 36.8585 34.515 36.3202 34.515C36.1336 34.515 36.0475 34.5867 36.0547 34.7733C36.0547 35.3116 36.0547 35.8427 36.0547 36.381C36.0547 36.582 36.1264 36.6681 36.3346 36.6681C36.8728 36.6609 37.4039 36.6681 37.9422 36.6681C38.1288 36.6681 38.215 36.5963 38.2078 36.4097C38.2006 36.1513 38.2078 35.8858 38.2078 35.6202ZM34.9135 35.6202C34.9135 35.3475 34.9135 35.0748 34.9135 34.802C34.9207 34.6011 34.8417 34.515 34.6336 34.515C34.0953 34.5221 33.5642 34.515 33.0259 34.515C32.8393 34.515 32.7532 34.5867 32.7604 34.7733C32.7604 35.3116 32.7604 35.8427 32.7604 36.381C32.7604 36.582 32.8322 36.6681 33.0403 36.6681C33.5786 36.6609 34.1097 36.6681 34.648 36.6681C34.8346 36.6681 34.9207 36.5963 34.9135 36.4097C34.9135 36.1513 34.9135 35.8858 34.9135 35.6202ZM31.6192 35.6202C31.6192 35.3475 31.6192 35.0748 31.6192 34.802C31.6192 34.6011 31.5475 34.515 31.3393 34.515C30.801 34.5221 30.2699 34.515 29.7317 34.515C29.5451 34.515 29.4589 34.5867 29.4661 34.7733C29.4661 35.3116 29.4733 35.8427 29.4661 36.381C29.4661 36.582 29.5379 36.6681 29.746 36.6681C30.2843 36.6609 30.8154 36.6681 31.3537 36.6681C31.5403 36.6681 31.6264 36.5963 31.6192 36.4097C31.6121 36.1513 31.6192 35.8858 31.6192 35.6202ZM34.9135 32.326C34.9135 32.0389 34.9135 31.759 34.9135 31.4719C34.9135 31.2996 34.8417 31.2279 34.6695 31.2279C34.1097 31.2279 33.557 31.2279 32.9972 31.2279C32.8393 31.2279 32.7676 31.2996 32.7676 31.4575C32.7676 32.0173 32.7676 32.5772 32.7676 33.1298C32.7676 33.302 32.8393 33.3738 33.0116 33.3738C33.557 33.3738 34.1025 33.3738 34.6551 33.3738C34.8417 33.3738 34.9279 33.302 34.9207 33.1083C34.9207 32.8427 34.9207 32.5843 34.9207 32.3188M43.7269 33.3666C43.9781 33.3666 44.2293 33.3595 44.4805 33.3666C44.7102 33.381 44.8107 33.3092 44.8107 33.058C44.7963 32.5484 44.8035 32.0317 44.8107 31.5221C44.8107 31.314 44.7533 31.2063 44.5236 31.2135C43.9997 31.2279 43.4757 31.2207 42.9518 31.2135C42.758 31.2135 42.6576 31.2709 42.6576 31.4862C42.6647 32.0173 42.6647 32.5556 42.6576 33.0939C42.6576 33.3092 42.7509 33.3738 42.9446 33.3666C43.203 33.3595 43.4686 33.3666 43.7341 33.3666M41.5164 32.2901C41.5164 32.0317 41.5164 31.7661 41.5164 31.5006C41.5236 31.2996 41.4518 31.2063 41.2437 31.2135C40.7054 31.2207 40.1743 31.2207 39.636 31.2135C39.4207 31.2135 39.3633 31.314 39.3633 31.5078C39.3633 32.0317 39.3633 32.5556 39.3633 33.0795C39.3633 33.2805 39.4279 33.3738 39.636 33.3666C40.1743 33.3595 40.7054 33.3595 41.2437 33.3666C41.459 33.3666 41.5236 33.2662 41.5164 33.0724C41.5092 32.8068 41.5164 32.5484 41.5164 32.2829M36.0762 32.2829C36.0762 32.5341 36.0834 32.7853 36.0762 33.0365C36.0618 33.2662 36.1336 33.3666 36.3848 33.3666C36.8944 33.3523 37.4111 33.3595 37.9207 33.3666C38.136 33.3666 38.2365 33.3092 38.2293 33.0795C38.2221 32.5556 38.2221 32.0317 38.2293 31.5078C38.2293 31.314 38.1719 31.2135 37.9566 31.2135C37.4183 31.2207 36.8872 31.2207 36.3489 31.2135C36.1336 31.2135 36.069 31.3068 36.0762 31.5006C36.0834 31.759 36.0762 32.0245 36.0762 32.2829ZM30.5929 31.2135C30.3202 31.2135 30.0475 31.2207 29.7747 31.2135C29.5738 31.2135 29.4876 31.2781 29.4876 31.4934C29.4948 32.0317 29.4876 32.5628 29.4876 33.1011C29.4876 33.2877 29.5522 33.3738 29.746 33.3666C30.2915 33.3666 30.8369 33.3666 31.3896 33.3666C31.5905 33.3666 31.6408 33.2733 31.6408 33.0939C31.6408 32.5556 31.6336 32.0245 31.6408 31.4862C31.6408 31.2709 31.5403 31.2135 31.3465 31.2207C31.0953 31.2279 30.8441 31.2207 30.5929 31.2207M28.3465 32.2972C28.3465 32.0461 28.3393 31.7949 28.3465 31.5437C28.3608 31.314 28.2891 31.2135 28.0379 31.2135C27.5283 31.2279 27.0116 31.2207 26.502 31.2135C26.2867 31.2135 26.1862 31.2709 26.1934 31.5006C26.2077 32.0245 26.2005 32.5484 26.1934 33.0724C26.1934 33.2733 26.2508 33.3666 26.4661 33.3666C27.0044 33.3595 27.5355 33.3595 28.0738 33.3666C28.2891 33.3666 28.3537 33.2733 28.3465 33.0795C28.3393 32.8212 28.3465 32.5556 28.3465 32.2901M42.6647 38.8714C42.6647 39.1298 42.6647 39.3954 42.6647 39.6609C42.6647 39.8547 42.715 39.9624 42.9303 39.9552C43.4686 39.948 43.9997 39.948 44.538 39.9552C44.7461 39.9552 44.8179 39.8691 44.8107 39.6681C44.8107 39.1442 44.8107 38.6202 44.8107 38.0963C44.8107 37.9025 44.7604 37.8021 44.538 37.8021C43.9997 37.8092 43.4686 37.8092 42.9303 37.8021C42.7222 37.8021 42.6432 37.8882 42.6504 38.0891C42.6576 38.3475 42.6504 38.6131 42.6504 38.8786M39.3561 38.8499C39.3561 39.1226 39.3633 39.3954 39.3561 39.6681C39.3489 39.8691 39.4279 39.9552 39.636 39.9552C40.1743 39.948 40.7054 39.9552 41.2437 39.9552C41.4303 39.9552 41.5164 39.8834 41.5092 39.6968C41.5092 39.1513 41.5092 38.6059 41.5092 38.0533C41.5092 37.881 41.4446 37.8021 41.2652 37.8021C40.7054 37.8021 40.1528 37.8021 39.593 37.8021C39.4063 37.8021 39.3561 37.8954 39.3633 38.0604C39.3633 38.326 39.3633 38.5844 39.3633 38.8499M36.069 38.8786C36.069 39.1298 36.0762 39.381 36.069 39.6322C36.0547 39.8619 36.1264 39.9624 36.3776 39.9552C36.8872 39.9408 37.4039 39.948 37.9135 39.9552C38.1288 39.9552 38.2293 39.8978 38.2221 39.6609C38.215 39.137 38.215 38.6131 38.2221 38.0891C38.2221 37.8954 38.1647 37.7949 37.9494 37.8021C37.4183 37.8092 36.88 37.8092 36.3417 37.8021C36.1264 37.8021 36.0618 37.8954 36.069 38.0891C36.0762 38.3475 36.069 38.6131 36.069 38.8786ZM23.6599 33.3666C24.0115 33.3666 24.3632 33.3595 24.7221 33.3666C24.9517 33.3738 25.0522 33.3092 25.0522 33.058C25.0379 32.5484 25.045 32.0317 25.0522 31.5221C25.0522 31.3068 24.9876 31.2135 24.758 31.2135C24.0546 31.2207 23.3441 31.2207 22.6407 31.2135C22.4469 31.2135 22.3465 31.2709 22.3536 31.4862C22.3608 32.0245 22.3608 32.5556 22.3536 33.0939C22.3536 33.3092 22.4469 33.3738 22.6407 33.3666C22.9852 33.3595 23.3225 33.3666 23.667 33.3666M23.7029 39.9552C24.0546 39.9552 24.4135 39.9552 24.7651 39.9552C24.9661 39.9552 25.0594 39.8978 25.0522 39.6824C25.045 39.1442 25.045 38.6131 25.0522 38.0748C25.0522 37.8595 24.9517 37.8021 24.758 37.8021C24.0474 37.8021 23.3441 37.8021 22.6407 37.8021C22.4398 37.8021 22.3465 37.8666 22.3536 38.0748C22.3608 38.6131 22.3608 39.1442 22.3536 39.6824C22.3536 39.8978 22.4541 39.9552 22.6479 39.9552C22.9996 39.948 23.3513 39.9552 23.7101 39.9552M47.337 37.8092C46.971 37.8092 46.6049 37.8092 46.2461 37.8092C46.038 37.8092 45.9662 37.8882 45.9662 38.0891C45.9734 38.6274 45.9662 39.1585 45.9662 39.6968C45.9662 39.8906 46.0451 39.9624 46.2317 39.9552C46.9494 39.9552 47.6671 39.9552 48.3849 39.9552C48.593 39.9552 48.6648 39.8762 48.6648 39.6681C48.6576 39.1298 48.6648 38.5987 48.6648 38.0604C48.6648 37.8666 48.5858 37.7949 48.3992 37.8021C48.0475 37.8021 47.6959 37.8021 47.337 37.8021M47.2939 36.6537C47.6456 36.6537 48.0045 36.6465 48.3561 36.6537C48.5643 36.6537 48.6719 36.6035 48.6648 36.3666C48.6576 35.8427 48.6576 35.3188 48.6648 34.7949C48.6648 34.6011 48.6073 34.5006 48.392 34.5006C47.6743 34.5078 46.9566 34.5078 46.2389 34.5006C46.0308 34.5006 45.959 34.5867 45.9662 34.7877C45.9662 35.3116 45.9734 35.8355 45.9662 36.3595C45.9662 36.5891 46.0523 36.6609 46.2748 36.6537C46.6193 36.6465 46.9566 36.6537 47.3011 36.6537M47.3083 33.3595C47.6743 33.3595 48.0404 33.3595 48.3992 33.3595C48.5858 33.3595 48.6719 33.2949 48.6719 33.1011C48.6719 32.5556 48.6719 32.0102 48.6719 31.4575C48.6719 31.2566 48.5715 31.2063 48.392 31.2063C47.6743 31.2063 46.9566 31.2063 46.2389 31.2063C46.0236 31.2063 45.9662 31.3068 45.9662 31.5006C45.9662 32.0173 45.9734 32.5269 45.9662 33.0365C45.9662 33.2662 46.038 33.3666 46.282 33.3595C46.6193 33.3451 46.9638 33.3595 47.3083 33.3595ZM23.6814 36.6681C24.0331 36.6681 24.3919 36.6609 24.7436 36.6681C24.9589 36.6681 25.0522 36.5963 25.045 36.3738C25.0307 35.8642 25.0307 35.3475 25.045 34.8379C25.045 34.6011 24.9733 34.515 24.7293 34.515C24.0331 34.5293 23.3369 34.5221 22.6407 34.515C22.4254 34.515 22.3321 34.5867 22.3393 34.8092C22.3465 35.3331 22.3465 35.8571 22.3393 36.381C22.3393 36.582 22.4111 36.6681 22.6192 36.6681C22.9709 36.6609 23.3297 36.6681 23.6814 36.6681ZM50.8394 39.9839C50.8394 36.8332 50.8394 33.6752 50.8394 30.5245C50.8394 30.2303 50.7676 30.0867 50.459 30.1298C50.3801 30.1441 50.294 30.1441 50.2222 30.1298C49.8777 30.0724 49.7772 30.2159 49.7772 30.5676C49.7916 33.7183 49.7844 36.8762 49.7844 40.0269C49.7844 43.1777 49.7844 46.3141 49.7844 49.4576C49.7844 49.7447 49.8562 49.8954 50.1648 49.8523C50.2437 49.838 50.3227 49.838 50.4016 49.8523C50.7461 49.9026 50.8466 49.7662 50.8466 49.4145C50.8322 46.271 50.8394 43.1274 50.8394 39.9839ZM20.1503 39.9839V41.2542C20.1503 43.9743 20.1503 46.6944 20.1503 49.4145C20.1503 49.5437 20.0857 49.7447 20.2221 49.7949C20.502 49.9026 20.8178 49.8882 21.0977 49.8093C21.2914 49.7519 21.1981 49.5078 21.1981 49.35C21.1981 43.1131 21.1981 36.869 21.1981 30.6322C21.1981 30.5389 21.1981 30.4456 21.1981 30.3594C21.1981 30.2015 21.1192 30.1298 20.9685 30.137C20.8536 30.137 20.7388 30.137 20.624 30.137C20.3082 30.137 20.1503 30.2925 20.1503 30.6035C20.1503 33.7327 20.1503 36.869 20.1503 39.9982M35.4805 41.1179H22.8202C22.5044 41.1179 22.3465 41.2734 22.3465 41.5844C22.3465 44.4624 22.3465 47.3475 22.3465 50.2256C22.3465 50.8428 22.1886 50.9935 21.5785 51.0007C20.9398 51.0007 20.301 51.0007 19.6551 51.0007C19.2029 51.0007 19.0091 50.8069 19.0091 50.3547C19.002 43.4432 19.002 36.5461 19.002 29.6489C19.002 29.1752 19.1886 28.9886 19.6694 28.9814C20.3441 28.9814 21.0187 28.9814 21.6934 28.9814C22.1455 28.9814 22.3321 29.1752 22.3393 29.6346C22.3441 29.9312 22.4972 30.0795 22.7986 30.0795C31.2604 30.0795 39.7221 30.0795 48.1839 30.0795C48.4805 30.0795 48.6337 29.9312 48.6432 29.6346C48.6576 29.1824 48.837 28.9886 49.2892 28.9814C49.9495 28.9814 50.6169 28.9814 51.2772 28.9814C51.794 28.9814 51.9806 29.1609 51.9806 29.6848C51.9806 33.2877 51.9806 36.8906 51.9806 40.4935C51.9806 43.7303 51.9806 46.9672 51.9806 50.204C51.9806 50.8428 51.8298 50.9935 51.1911 50.9935C50.5739 50.9935 49.9566 50.9935 49.3394 50.9935C48.8227 50.9935 48.6432 50.8141 48.6432 50.2901C48.6432 47.3834 48.6432 44.4839 48.6432 41.5772C48.6432 41.271 48.4853 41.1155 48.1695 41.1107H35.4805" fill="#896B3B"/>
<path d="M26.6879 47.1316C26.6879 46.7727 26.5324 46.5933 26.2213 46.5933C25.6902 46.5933 25.6615 46.622 25.6472 47.1029C25.64 47.5837 25.6974 47.6412 26.1926 47.6412C26.6879 47.6412 26.6879 47.6412 26.6879 47.1316ZM32.7166 46.5933C32.3912 46.5933 32.2286 46.7656 32.2286 47.1101C32.2286 47.4546 32.396 47.634 32.7309 47.6483C33.219 47.6483 33.2549 47.6125 33.262 47.1316C33.262 46.6507 33.2118 46.5933 32.7166 46.5933ZM28.884 49.3278C28.884 48.9689 28.719 48.7895 28.3888 48.7895C28.0204 48.7895 27.8362 48.9522 27.8362 49.2775C27.8362 49.8086 27.8793 49.8158 28.5324 49.8517C28.9845 49.8732 28.8697 49.5718 28.884 49.3349M30.0252 49.2991C30.0252 49.6627 30.1424 49.8445 30.3769 49.8445C31.0228 49.8445 31.073 49.8015 31.073 49.3134C31.073 48.9689 30.9128 48.7943 30.5922 48.7895C30.2142 48.7895 30.0252 48.957 30.0252 49.2919M30.5491 45.445C30.8984 45.445 31.073 45.2847 31.073 44.9641C31.073 44.4258 31.0443 44.4187 30.384 44.3828C29.9391 44.3612 30.0252 44.6483 30.0252 44.8923C30.0252 45.4378 30.0252 45.4378 30.5491 45.4378M28.3242 45.4378C28.8769 45.4378 28.8984 45.4378 28.8769 44.9569C28.8625 44.7344 29.0563 44.3684 28.5539 44.3828C27.8936 44.3971 27.829 44.4258 27.829 44.9282C27.829 45.2679 27.9941 45.4378 28.3242 45.4378ZM31.073 47.1101C31.073 46.7608 30.9056 46.5837 30.5707 46.579C30.207 46.579 30.0252 46.7416 30.0252 47.067C30.0252 47.4402 30.1927 47.6268 30.5276 47.6268C30.8912 47.6268 31.073 47.4522 31.073 47.1029M28.3242 47.6268C28.6927 47.6268 28.8769 47.4665 28.8769 47.1459C28.8769 46.768 28.7118 46.5766 28.3816 46.5718C28.0132 46.5718 27.829 46.7321 27.829 47.0526C27.829 47.4306 27.9941 47.6196 28.3242 47.6196M43.7262 47.6196C44.0348 47.6196 44.3434 47.6196 44.6449 47.6196C45.4343 47.6053 45.3267 47.7416 45.3482 46.9091C45.3554 46.622 45.2334 46.5646 44.9822 46.5718C44.2645 46.5861 43.5468 46.5718 42.8291 46.5718C41.9965 46.579 42.1114 46.4211 42.0898 47.3182C42.0898 47.5694 42.1975 47.6268 42.42 47.6196C42.8506 47.6053 43.2884 47.6196 43.719 47.6196M43.7047 48.7608C43.0085 48.7608 42.3123 48.7608 41.609 48.7608C41.1353 48.7608 40.9272 48.567 40.9487 48.0933C40.9702 47.7345 40.841 47.6555 40.5037 47.6555C38.5946 47.6699 36.6855 47.6699 34.7764 47.6555C34.4821 47.6555 34.3673 47.7416 34.2884 48.0359C33.829 49.823 32.3434 50.957 30.4989 50.957C29.7812 50.957 29.0563 50.957 28.3386 50.957C26.3434 50.957 24.6137 49.378 24.4773 47.4904C24.3051 45.1435 25.9414 43.4569 27.8147 43.256C28.9415 43.1411 30.1113 43.0981 31.2309 43.2847C32.8314 43.5574 33.8506 44.5622 34.2812 46.1268C34.3673 46.4354 34.4893 46.5215 34.7908 46.5144C36.6999 46.5 38.609 46.5 40.5181 46.5144C40.841 46.5144 40.963 46.4282 40.9487 46.0909C40.9272 45.5885 41.1281 45.4091 41.6233 45.4091C43.0157 45.4091 44.4152 45.4091 45.8076 45.4091C46.2812 45.4091 46.475 45.6029 46.475 46.0766C46.475 46.7512 46.475 47.4258 46.475 48.1005C46.475 48.5526 46.2741 48.7464 45.8219 48.7464C45.1114 48.7464 44.4009 48.7464 43.6975 48.7464" fill="#896B3B"/>
<path d="M24.4846 25.0981C25.3889 25.1125 26.0923 24.4378 26.1138 23.5479C26.1282 22.6507 25.432 21.9259 24.5277 21.9043C23.6664 21.8828 22.9272 22.6077 22.9128 23.4833C22.8913 24.3589 23.5947 25.0766 24.4918 25.0909M24.5349 18C25.0229 18 25.3602 18.2368 25.554 18.6746C25.7478 19.1053 25.6401 19.6005 25.3028 19.945C25.2095 20.0383 25.0947 20.1101 25.0875 20.2751C25.0588 20.5981 25.0875 20.8708 25.4966 20.9211C25.5612 20.9282 25.6258 20.9713 25.6832 21C26.1066 21.201 26.4727 20.9641 26.487 20.4761C26.5086 19.7799 26.9248 19.3278 27.5708 19.3134C28.2454 19.299 28.7478 19.7584 28.7622 20.4115C28.7693 21.0287 28.2741 21.5526 27.6282 21.5455C27.3267 21.5455 27.1688 21.6962 26.9894 21.8756C26.8961 21.9761 26.8818 22.0622 26.9464 22.1842C27.0181 22.3134 27.0827 22.4498 27.133 22.5861C27.3052 23.0311 27.7215 23.1101 28.0732 22.7584C28.4105 22.4139 28.8196 22.3206 29.2717 22.457C29.7167 22.5861 30.011 22.9737 30.0325 23.4115C30.0612 23.9498 29.8315 24.3589 29.3937 24.5527C28.9703 24.7464 28.4607 24.6603 28.1234 24.3302C28.0014 24.2082 27.9009 24.1005 27.6999 24.0861C27.3913 24.0718 27.1832 24.1364 27.1401 24.4737C27.1401 24.5168 27.1043 24.5598 27.0899 24.6029C26.8531 25.1627 27.0397 25.4641 27.6497 25.5C28.2741 25.5359 28.7406 25.9737 28.7909 26.5766C28.8411 27.122 28.4105 27.6532 27.822 27.7752C27.176 27.9043 26.5229 27.3589 26.5014 26.6627C26.5014 26.5192 26.5229 26.3685 26.4153 26.2393C26.2143 25.9952 26.0062 25.7943 25.6832 26.0598C25.6258 26.1101 25.5397 26.1244 25.4607 26.1531C25.0373 26.311 24.9511 26.7417 25.2813 27.0718C25.7621 27.5455 25.7837 28.2776 25.3315 28.7297C24.8937 29.1675 24.1545 29.1603 23.7239 28.7297C23.2789 28.2776 23.3004 27.5527 23.7813 27.0718C24.1114 26.7417 24.0253 26.311 23.5947 26.1531C23.5301 26.1316 23.4655 26.1029 23.4081 26.0742C22.9057 25.8517 22.5755 26.0742 22.5612 26.634C22.5468 27.2584 22.1162 27.7393 21.5205 27.7967C20.9535 27.8541 20.4368 27.4594 20.3004 26.8637C20.1425 26.1819 20.6736 25.5359 21.4344 25.5C21.5851 25.4929 21.7215 25.5 21.8506 25.3924C22.0803 25.1914 22.2597 24.9905 22.0085 24.6818C21.9655 24.6316 21.9511 24.5598 21.9296 24.4952C21.7502 24.0216 21.3411 23.9354 20.975 24.3015C20.6234 24.6531 20.121 24.7536 19.6832 24.567C19.2167 24.3589 18.9798 23.9498 19.0013 23.4187C19.0229 22.9737 19.3028 22.5861 19.7478 22.4498C20.2143 22.3062 20.6234 22.3995 20.9679 22.7584C21.2908 23.0957 21.7286 23.0096 21.8865 22.5861C21.9009 22.5431 21.9224 22.5 21.9368 22.457C21.987 22.2416 22.2741 22.055 21.9798 21.7895C21.786 21.6172 21.6066 21.5311 21.3482 21.5311C20.7597 21.5311 20.2932 21.0503 20.2502 20.4617C20.2143 19.9306 20.6592 19.3852 21.176 19.3062C21.8148 19.2129 22.353 19.5359 22.4966 20.1172C22.5325 20.2464 22.5253 20.39 22.5325 20.5263C22.5612 20.9426 22.9416 21.1723 23.3076 21C23.3865 20.9641 23.4727 20.9211 23.5588 20.8924C24.0109 20.7201 24.0971 20.3038 23.7454 19.9593C23.3865 19.6005 23.2789 19.1196 23.4655 18.6675C23.6521 18.2512 24.0396 18 24.5349 18Z" fill="#896B3B"/>
<path d="M46.4755 25.0982C47.3798 25.0982 48.0831 24.402 48.0688 23.5192C48.0616 22.6149 47.3295 21.8901 46.4468 21.9116C45.5712 21.9259 44.8463 22.6724 44.8606 23.5264C44.8822 24.4236 45.5712 25.0982 46.4683 25.0982M51.9803 23.5264C51.9803 24.0145 51.7434 24.3518 51.3128 24.5527C50.8822 24.7465 50.387 24.646 50.0425 24.3087C49.9492 24.2154 49.8774 24.1006 49.7123 24.0862C49.3894 24.0647 49.1166 24.0862 49.0664 24.4882C49.0664 24.5456 49.0233 24.5958 49.0018 24.646C48.7865 25.1197 49.0018 25.4642 49.5401 25.4858C50.1932 25.5145 50.6597 25.9307 50.7243 26.548C50.7817 27.0934 50.3511 27.6317 49.7626 27.7537C49.1166 27.8901 48.4563 27.3518 48.4276 26.6556C48.4276 26.4834 48.4276 26.3255 48.3056 26.1748C48.1047 25.9379 47.9037 25.8016 47.6166 26.0384C47.5807 26.0671 47.5305 26.0743 47.4946 26.0958C46.9276 26.3327 46.8558 26.67 47.2793 27.1221C47.6023 27.4666 47.6812 27.9762 47.4874 28.3997C47.2865 28.8375 46.8702 29.0599 46.3319 29.0312C45.8941 29.0025 45.5066 28.7011 45.3845 28.2561C45.2625 27.8183 45.3487 27.4164 45.6788 27.0862C46.0592 26.7059 45.9731 26.3111 45.4707 26.1173C45.4276 26.103 45.3846 26.0815 45.3415 26.0671C44.8319 25.8374 44.5018 26.0528 44.4874 26.6126C44.4731 27.2441 44.0568 27.7178 43.4539 27.7896C42.8798 27.8542 42.3487 27.4451 42.2123 26.8351C42.0759 26.1891 42.5927 25.5216 43.3032 25.5073C43.6046 25.5073 43.7912 25.3709 43.9707 25.1771C44.064 25.0767 44.0783 24.9905 44.0209 24.8685C43.9491 24.725 43.8774 24.5815 43.8271 24.4307C43.6692 24.0216 43.2386 23.9427 42.9228 24.2585C42.4132 24.7752 41.6309 24.7752 41.2003 24.2585C40.8199 23.8063 40.8486 23.103 41.2721 22.7011C41.7027 22.2848 42.4204 22.2848 42.8582 22.7082C42.9802 22.8302 43.0807 22.9451 43.2817 22.9523C43.5831 22.9666 43.7984 22.9092 43.8487 22.5719C43.863 22.4929 43.9061 22.4212 43.942 22.3494C44.1357 21.9259 43.8989 21.5599 43.418 21.5456C42.8152 21.5312 42.4132 21.2369 42.2625 20.713C42.1333 20.268 42.2697 19.8948 42.5855 19.5934C42.9372 19.2561 43.3606 19.2202 43.7984 19.3853C44.2219 19.5432 44.4444 19.8733 44.4946 20.3255C44.5089 20.4833 44.4587 20.6412 44.5664 20.792C44.8032 21.1365 44.9324 21.1723 45.32 20.9929C45.3917 20.957 45.4707 20.9283 45.5424 20.8996C45.9659 20.7417 46.0448 20.3111 45.7147 19.981C45.241 19.5073 45.2195 18.768 45.6645 18.3231C46.1023 17.8924 46.8415 17.8924 47.2721 18.3302C47.7171 18.7824 47.6884 19.5073 47.2075 19.9881C46.8774 20.3183 46.9707 20.7417 47.4013 20.9068C47.4659 20.9283 47.5305 20.957 47.5951 20.9857C48.0903 21.2082 48.4204 20.9857 48.4348 20.4259C48.4492 19.902 48.7649 19.4857 49.2386 19.3565C49.7339 19.2202 50.2506 19.3996 50.509 19.8015C50.7889 20.225 50.7602 20.7848 50.43 21.1723C50.2075 21.4307 49.9276 21.5886 49.5903 21.5599C49.2745 21.5312 49.1094 21.7178 48.9228 21.9044C48.8367 21.9905 48.8367 22.0767 48.887 22.1843C48.9516 22.3135 49.0233 22.4499 49.0736 22.5862C49.2458 23.0384 49.6621 23.1245 50.0066 22.78C50.3726 22.414 50.8463 22.3135 51.2985 22.5001C51.7291 22.6795 51.9731 23.0671 51.9731 23.5551" fill="#896B3B"/>
<path d="M34.9212 23.5409V23.2036C34.9212 23.0816 34.871 23.0026 34.7418 23.0026C34.4834 23.0026 34.1533 22.8949 33.981 23.0457C33.8375 23.1749 34.0743 23.4476 34.1317 23.6629C34.1533 23.7418 34.1891 23.8136 34.2178 23.8854C34.2609 23.993 34.347 24.0289 34.4547 24.0433C34.871 24.0935 34.9212 24.0433 34.9212 23.5409ZM36.0695 23.4835C36.0695 23.5552 36.0695 23.5983 36.0695 23.6414C36.0911 23.7921 35.9834 24.0146 36.2561 24.0361C36.493 24.0576 36.7442 24.0863 36.8303 23.7634C36.8805 23.5624 36.9667 23.3758 37.0313 23.182C37.0528 23.1174 37.0815 23.017 37.0025 23.0098C36.7298 22.9954 36.4499 22.9595 36.1915 23.0241C35.9619 23.0816 36.1198 23.3399 36.0695 23.4835ZM35.5169 25.1916C35.2298 25.1916 34.9499 25.1916 34.6628 25.1916C34.4834 25.1916 34.4547 25.2706 34.4834 25.4285C34.5552 25.8375 35.0576 26.2395 35.5097 26.2323C35.9619 26.2251 36.4356 25.8375 36.5073 25.4428C36.5432 25.2634 36.493 25.1916 36.2992 25.1988C36.0408 25.206 35.7753 25.1988 35.5097 25.1988M37.0169 20.8064C36.7801 20.8064 36.536 20.8064 36.2992 20.8064C36.17 20.8064 36.0911 20.8423 36.0624 20.993C35.926 21.7107 36.0408 21.8615 36.7442 21.8615C37.2848 21.8615 37.6317 21.6055 37.7848 21.0935C37.7848 21.0935 37.7848 21.072 37.792 21.0576C37.8638 20.8854 37.8207 20.7992 37.6198 20.8064C37.4116 20.8136 37.2107 20.8064 37.0025 20.8064M34.0097 20.8064C33.78 20.8064 33.5576 20.8064 33.3279 20.8064C33.1628 20.8064 33.1126 20.8567 33.1556 21.0361C33.3422 21.8256 33.3853 21.8615 34.1963 21.8615H34.3686C34.7274 21.8615 34.9068 21.6844 34.9068 21.3303C34.9068 20.9763 34.7346 20.804 34.3901 20.8136C34.2681 20.8136 34.1389 20.8136 34.0169 20.8136M35.481 27.4021C34.225 27.4021 33.2633 26.4476 33.2633 25.1916C33.2633 24.9261 33.2202 24.6749 33.1269 24.4237C32.4954 22.694 31.8638 20.9643 31.2394 19.2346C31.0671 18.7538 31.0599 18.7394 31.5336 18.5815C32.2442 18.3447 32.1293 18.2155 32.4164 19.005C32.7107 19.8088 32.5599 19.6509 33.3351 19.6653C33.7585 19.6724 34.182 19.6581 34.6054 19.6653C34.8279 19.6653 34.9284 19.5863 34.9068 19.3638C34.9068 19.3495 34.9068 19.3423 34.9068 19.3279C34.9284 18.4882 34.9427 18.4811 35.804 18.56C35.9762 18.5744 36.0552 18.639 36.048 18.8112C36.048 18.8471 36.048 18.883 36.048 18.9117C36.0624 19.4093 36.3207 19.6581 36.8231 19.6581C37.2107 19.6581 37.5982 19.6509 37.9858 19.6581C38.2011 19.6653 38.3303 19.5935 38.3949 19.3854C38.4738 19.1342 38.5671 18.8901 38.6605 18.6461C38.8758 18.1007 39.1916 18.5672 39.4499 18.5959C39.6724 18.6246 39.9164 18.6892 39.7729 19.0696C39.1772 20.6485 38.6102 22.249 38.0289 23.8351C37.8351 24.3591 37.6772 24.8758 37.6628 25.4572C37.6341 26.5122 36.5935 27.395 35.4667 27.395" fill="#896B3B"/>
<path d="M23.9463 23.4826C23.9463 23.1238 24.1472 22.9443 24.5492 22.9443C24.9511 22.9443 25.1305 23.1453 25.0874 23.5472C25.0444 23.9491 24.8434 24.1286 24.4846 24.0855C24.1257 24.0424 23.9463 23.8415 23.9463 23.4826Z" fill="#896B3B"/>
<path d="M46.5046 22.9443C46.8635 22.9443 47.0429 23.1453 47.0429 23.5472C47.0429 23.9491 46.842 24.1286 46.44 24.0855C46.0381 24.0424 45.8587 23.8415 45.9018 23.4826C45.9448 23.1238 46.1458 22.9443 46.5046 22.9443Z" fill="#896B3B"/>
</svg>
