<svg width="70" height="70" viewBox="0 0 70 70" fill="none" xmlns="http://www.w3.org/2000/svg">
<circle cx="35" cy="35" r="31" stroke="#896B3B" stroke-width="2"/>
<path d="M20.1922 32.443C21.0683 32.2906 21.9521 32.1458 22.8359 32.0011C23.0111 31.9706 23.0568 31.902 22.9273 31.7573C22.5235 31.3002 22.0207 31.064 21.4112 31.1478C20.756 31.2392 20.2836 31.6049 20.0246 32.222C19.956 32.3744 19.9941 32.4658 20.1846 32.443M38.4617 32.9077C38.4084 32.7553 38.2788 32.7325 38.1722 32.6791C36.4275 31.864 34.6905 31.0488 32.9458 30.2336C32.2068 29.8907 32.2144 29.8907 31.8944 30.6374C31.8106 30.8278 31.8335 30.9116 32.0239 31.003C32.542 31.2316 33.0601 31.483 33.5705 31.7192C34.9724 32.3744 36.3742 33.0296 37.776 33.6848C37.8598 33.7229 37.9893 33.8372 38.0503 33.7305C38.2103 33.4715 38.3246 33.182 38.4617 32.9077ZM19.4532 39.6426C19.5751 39.6273 19.6741 39.6197 19.7808 39.6045C21.655 39.2997 23.5215 38.9798 25.3957 38.675C26.0509 38.5684 26.0509 38.576 25.9443 37.9208C25.8757 37.4941 25.8681 37.4865 25.4491 37.5627C23.5749 37.8751 21.7083 38.1798 19.8341 38.4998C18.9504 38.6522 19.0266 38.4236 19.1865 39.4293C19.217 39.6121 19.2704 39.7111 19.4456 39.6426M38.7893 27.6356C38.7893 26.6071 38.0046 25.8681 36.9608 25.929C36.0466 25.9824 35.2695 26.889 35.4219 27.788C35.498 28.2299 35.4371 28.6184 35.2238 28.9993C35.1552 29.1136 35.1247 29.2584 35.0485 29.365C34.8505 29.6698 34.9647 29.8222 35.2771 29.9441C35.6199 30.0736 35.9323 30.2488 36.2675 30.4012C37.0522 30.7516 36.8618 30.7973 37.2122 30.0431C37.4103 29.6088 37.6389 29.2508 38.0731 28.9917C38.5607 28.7098 38.8045 28.2222 38.7893 27.6356ZM24.5805 32.9839C22.6987 33.2886 20.9084 33.5858 19.118 33.8753C18.9351 33.9057 18.8818 33.9667 19.0342 34.1343C19.6056 34.7362 20.1617 35.3533 20.7331 35.9552C20.9312 36.1609 21.0836 36.3818 21.0988 36.6637C21.1141 36.9608 21.2817 36.9913 21.5102 36.9532C22.0359 36.8694 22.5616 36.7704 23.0873 36.6942C23.2778 36.6637 23.3692 36.5646 23.3158 36.397C23.1863 35.9475 23.3997 35.5818 23.5749 35.2009C23.9025 34.4924 24.2225 33.7762 24.5729 32.9915M26.1119 47.5355C26.1119 47.5355 26.0128 47.5355 25.9443 47.5431C24.7786 47.7336 23.6054 47.8936 22.4473 48.1145C21.1979 48.3507 20.4131 49.2649 20.4208 50.3772C20.4208 50.621 20.4665 50.7201 20.756 50.6744C23.1863 50.263 25.6167 49.8668 28.0546 49.4782C28.3518 49.4325 28.4051 49.3106 28.3137 49.044C28.0318 48.1983 27.0871 47.5355 26.1195 47.5355M34.0581 42.8881C34.0124 42.1796 33.5553 41.4787 32.6868 41.0673C31.6735 40.5797 30.6526 40.0997 29.6241 39.6426C28.5498 39.1702 27.4299 39.4597 26.7823 40.3359C26.5461 40.6559 26.5538 40.6863 26.8966 40.8463C28.9765 41.8215 31.064 42.7891 33.1439 43.7643C33.9515 44.1452 34.0657 44.069 34.0581 42.8957M35.3685 34.1419C35.4066 33.9591 35.3 33.921 35.2085 33.8829C34.66 33.6239 34.1115 33.3801 33.5705 33.1134C33.3724 33.022 33.2582 33.0753 33.1591 33.2582C32.222 34.9343 31.2773 36.6104 30.325 38.2865C30.2183 38.4693 30.2412 38.5531 30.4393 38.6445C31.2545 39.0179 32.0773 39.3912 32.8848 39.7873C33.1286 39.9092 33.2353 39.8559 33.3267 39.6045C33.9743 37.8522 34.6371 36.1075 35.2923 34.3629C35.3228 34.2791 35.3533 34.1876 35.3685 34.1419ZM21.7312 40.9301C21.8988 42.8881 22.0588 44.7623 22.2188 46.6441C22.234 46.865 22.3407 46.865 22.5159 46.8346C23.3997 46.6822 24.2834 46.5298 25.1748 46.4003C25.4719 46.3622 25.4948 46.2403 25.4338 45.9889C24.9767 44.1604 24.5272 42.3243 24.0929 40.4882C24.032 40.2216 23.9025 40.1759 23.6663 40.214C23.1711 40.3054 22.6835 40.4121 22.1883 40.4654C21.8302 40.5035 21.6474 40.6178 21.7312 40.9301ZM41.2882 22.9197C40.4197 22.9197 39.5588 22.9197 38.6902 22.9197C38.4388 22.9197 38.2636 22.9882 38.1265 23.2092C37.8903 23.5977 37.6236 23.9634 37.3798 24.352C37.3265 24.4434 37.1437 24.5577 37.3037 24.6567C37.4332 24.7405 37.6313 24.8091 37.7836 24.672C37.8522 24.611 37.8903 24.5044 37.936 24.4053C38.3322 23.5673 38.3322 23.5749 39.1702 24.032C39.3455 24.1234 39.4064 24.2225 39.3074 24.4129C39.2007 24.6263 39.1169 24.8548 39.0102 25.0605C38.9264 25.2205 38.9417 25.3272 39.0788 25.4491C39.4293 25.7538 39.6883 26.1271 39.8483 26.5614C39.9168 26.7442 40.0007 26.7899 40.1759 26.6909C40.4882 26.5157 40.8235 26.4166 41.1739 26.3633C42.0501 26.249 42.9262 26.3328 43.8024 26.31C44.7775 26.2871 45.5394 25.5557 45.5546 24.6186C45.5623 23.6815 44.808 22.9349 43.8252 22.9197C42.9795 22.9121 42.1415 22.9197 41.2958 22.9197M17 33.2201C17.3428 32.763 17.8761 32.8315 18.3409 32.7401C18.5923 32.6944 18.6609 32.6106 18.7066 32.3592C18.8589 31.4145 19.377 30.6983 20.2151 30.2412C20.4665 30.104 20.5122 29.9745 20.4741 29.7079C20.337 28.7784 20.3446 28.7784 21.3045 28.6946C21.4874 28.6794 21.5788 28.7327 21.6093 28.9232C21.6397 29.1746 21.7007 29.4184 21.7388 29.6622C21.7616 29.8298 21.8455 29.8907 22.0054 29.9136C23.0416 30.0583 23.7882 30.6145 24.2682 31.5364C24.3444 31.6811 24.4129 31.7421 24.5805 31.704C24.8472 31.643 25.1215 31.6125 25.3881 31.5668C25.67 31.5211 25.9367 31.5364 26.1271 31.7878C26.3176 32.0392 26.2719 32.2982 26.15 32.5649C25.6776 33.6086 25.1976 34.66 24.7253 35.7037C24.6872 35.7952 24.6339 35.8866 24.6034 35.9856C24.512 36.2904 24.6263 36.4275 24.931 36.3742C25.3424 36.3056 25.7614 36.237 26.1728 36.1685C26.6376 36.0923 26.9118 36.2675 27.0109 36.7399C27.1099 37.2046 27.1861 37.677 27.2547 38.1493C27.2852 38.3474 27.3613 38.3703 27.529 38.3093C27.9175 38.1798 28.3289 38.1265 28.7403 38.1189C28.9079 38.1189 29.0146 38.0503 29.0908 37.9055C30.0736 36.1609 31.0564 34.4086 32.0468 32.6715C32.1535 32.4887 32.1154 32.3896 31.9249 32.3058C31.5364 32.1382 31.1554 31.963 30.7821 31.7725C30.325 31.544 30.2183 31.2621 30.4316 30.7897C30.7135 30.1574 31.0107 29.525 31.3078 28.9003C31.5364 28.4279 31.8411 28.3289 32.3135 28.5346C32.6868 28.7022 33.0601 28.8698 33.4258 29.0603C33.6696 29.1898 33.7838 29.1212 33.8905 28.8774C34.0657 28.4813 34.2638 28.1156 34.1648 27.6432C34.1115 27.3918 34.0353 27.3309 33.7991 27.3309C32.3515 27.3156 31.2468 26.4547 30.904 25.0453C30.6983 24.1768 30.8964 23.3768 31.3992 22.6454C32.4201 21.1674 33.4334 19.6818 34.4771 18.2114C35.0714 17.4114 35.8942 17 36.9303 17C41.791 17.0076 46.6593 17 51.52 17C52.0152 17 52.0229 17 52.0152 17.5104C52.0152 18.2952 52.1067 18.2114 51.3296 18.2114C46.6822 18.2114 42.0348 18.2114 37.3875 18.2114C37.098 18.2114 36.8161 18.2342 36.5418 18.2799C36.039 18.3714 35.6809 18.6761 35.399 19.0875C34.401 20.5274 33.4029 21.9673 32.4125 23.4149C31.8716 24.1996 32.0087 25.2053 32.7096 25.7462C33.4562 26.3252 34.4086 26.2262 35.0638 25.4948C35.4295 25.0834 35.6885 24.6034 35.9933 24.1463C36.4656 23.4454 36.938 22.7521 37.3951 22.0435C37.5703 21.7693 37.8065 21.6474 38.1341 21.6474C40.0235 21.6474 41.9129 21.6321 43.8024 21.655C45.0823 21.6702 46.0422 22.2797 46.5298 23.4682C47.0098 24.6186 46.8041 25.7081 45.9508 26.6376C45.3642 27.2775 44.6023 27.5518 43.749 27.567C42.9872 27.5747 42.2253 27.5594 41.4634 27.5747C40.6025 27.5975 39.9016 28.268 39.7873 29.1365C39.6883 29.8755 40.2444 30.6678 41.0139 30.8964C41.273 30.9726 41.532 30.9573 41.791 30.9573C45.0137 30.9573 48.2364 30.9573 51.4591 30.9573C52.0076 30.9573 52.0076 30.9573 52.0076 31.4983C52.0076 32.3058 52.1067 32.2068 51.3067 32.2068C48.084 32.2068 44.8613 32.2068 41.6387 32.2068C40.2749 32.2068 39.315 31.6049 38.7664 30.3555C38.736 30.2869 38.7207 30.1802 38.6293 30.1802C38.515 30.1802 38.4922 30.2869 38.4541 30.3631C38.4007 30.4621 38.355 30.5688 38.3093 30.6754C38.035 31.2849 37.9436 31.163 38.6141 31.4906C38.9112 31.6354 39.2159 31.7573 39.5131 31.9097C39.9168 32.1154 40.0464 32.4277 39.8559 32.8468C39.5588 33.5096 39.254 34.1724 38.934 34.8276C38.7436 35.2162 38.4236 35.3304 38.0198 35.1552C37.6617 35.0028 37.3189 34.8352 36.9684 34.6676C36.5799 34.4848 36.5799 34.4848 36.4351 34.8733C35.8104 36.5342 35.2085 38.2027 34.5533 39.8559C34.3476 40.3663 34.3629 40.7168 34.7057 41.1968C35.6504 42.5224 35.4828 43.8938 34.7286 45.2118C34.5305 45.5546 34.2333 45.6156 33.8067 45.4175C32.8772 44.9909 31.9478 44.5566 31.0183 44.1223C29.3193 43.33 27.6128 42.5377 25.9138 41.7377C25.8529 41.7072 25.7919 41.6844 25.7005 41.6539C25.7233 42.012 25.8376 42.3243 25.9138 42.6367C26.1805 43.7566 26.4623 44.869 26.729 45.9889C26.7823 46.2327 26.8966 46.3394 27.1404 46.4155C28.7327 46.8803 29.6469 48.1754 29.7612 49.8287C29.7917 50.2325 29.6241 50.4382 29.2127 50.522C28.7175 50.6286 28.2146 50.6972 27.7118 50.8115H51.5581C52.0229 50.8115 52.0229 50.8115 52.0229 51.2839C52.0229 51.52 52.0076 51.7638 52 52C40.4425 52 28.8774 52 17.32 52C17.0609 52 16.9848 51.9467 17.0076 51.6876C17.0305 51.4057 17.0076 51.1162 17.0076 50.8344C17.6095 50.7734 18.2114 50.8115 18.8132 50.8115C19.0875 50.8115 19.1865 50.7353 19.1865 50.4458C19.2018 49.1811 19.7046 48.1526 20.7712 47.4364C20.9922 47.2917 21.0226 47.1317 20.9998 46.8879C20.9084 45.9356 20.8246 44.9832 20.7407 44.0385C20.6493 43.0176 20.5579 42.0044 20.4741 40.9835C20.4589 40.7778 20.3751 40.7397 20.1846 40.7778C19.7808 40.8539 19.377 40.9073 18.9732 40.9758C18.4552 41.0673 18.1733 40.8692 18.0818 40.3511C17.9676 39.6883 17.8609 39.0255 17.7542 38.3703C17.6704 37.8293 17.8609 37.5475 18.4018 37.4484C18.7447 37.3875 19.1027 37.357 19.4456 37.2732C19.598 37.2427 19.8418 37.3037 19.8951 37.1132C19.9484 36.9227 19.8037 36.7475 19.6589 36.6104C19.6056 36.557 19.5446 36.4961 19.4913 36.4351C18.6609 35.5438 17.838 34.6448 17.0076 33.7534V33.2048L17 33.2201Z" fill="#896B3B"/>
<path d="M38.0275 44.1908C38.0047 45.547 37.4333 46.6974 36.359 47.6116C35.9933 47.924 35.9857 47.9164 35.7267 47.5278C35.3153 46.9183 35.3153 46.9107 35.8181 46.4155C36.4505 45.7908 36.74 45.0213 36.7857 44.1527C36.8009 43.8861 36.8923 43.7871 37.1514 43.8023C37.3418 43.8175 37.5399 43.8099 37.7304 43.8023C37.9666 43.7947 38.0732 43.8937 38.0199 44.1908" fill="#896B3B"/>
<path d="M25.5718 27.285C25.7317 27.2697 25.7698 27.3535 25.8155 27.4373C26.1432 28.0849 26.4631 28.7401 26.7984 29.3877C26.8898 29.5629 26.8212 29.6544 26.6688 29.7382C26.1051 30.0683 25.6784 29.9413 25.3889 29.3572C25.1756 28.9306 24.9699 28.4963 24.7413 28.0773C24.6118 27.8335 24.6651 27.704 24.9089 27.6049C25.1527 27.5059 25.3813 27.3764 25.5794 27.2773" fill="#896B3B"/>
<path d="M28.5199 30.1261C28.2304 29.9737 27.9104 29.8214 27.6133 29.6461C27.5218 29.5928 27.5828 29.4785 27.6209 29.4024C27.9485 28.7548 28.2761 28.1072 28.5961 27.452C28.6799 27.2844 28.7789 27.2615 28.9541 27.3301C29.8684 27.7034 29.8684 27.6958 29.4265 28.5795C29.2056 29.029 28.9846 29.4709 28.7561 29.9204C28.7104 30.0118 28.6799 30.1109 28.5199 30.1337" fill="#896B3B"/>
</svg>
