<svg width="70" height="70" viewBox="0 0 70 70" fill="none" xmlns="http://www.w3.org/2000/svg">
<circle cx="35" cy="35" r="31" stroke="#896B3B" stroke-width="2"/>
<path d="M13 37.7739C13.1989 36.456 13.5305 35.1796 14.1024 33.9695C15.2379 31.5576 16.9287 29.6761 19.382 28.5738C20.8574 27.9107 22.3824 27.9853 23.8577 28.6401C25.0678 29.1788 26.2779 29.7424 27.4715 30.3143C29.3861 31.2343 30.4636 32.7677 30.7951 34.8481C30.8117 34.9724 30.82 35.0967 30.8117 35.221C30.7785 35.6106 30.5547 35.8427 30.1818 35.8924C29.8171 35.9338 29.5436 35.7598 29.4358 35.4117C29.3446 35.105 29.3281 34.7818 29.2535 34.4668C28.781 32.6102 27.1565 31.2924 25.4491 31.425C24.1644 31.5244 23.0704 32.1046 22.1006 32.9335C20.3766 34.4171 19.3157 36.2985 18.7438 38.4701C18.7107 38.6027 18.6858 38.7436 18.6444 38.8762C18.5118 39.2658 18.1885 39.4564 17.7907 39.3818C17.4343 39.3155 17.2105 39.0171 17.2602 38.6027C17.3348 37.9728 17.5503 37.3843 17.7575 36.7875C18.7355 34.0855 20.4181 31.9969 23.0206 30.6956C23.1698 30.621 23.3273 30.563 23.4765 30.4884C23.6091 30.4221 23.7749 30.4138 23.8909 30.2646C22.3824 29.3943 20.8408 29.2617 19.3572 30.1817C16.2656 32.0963 14.666 34.9227 14.4505 38.5364C14.3924 39.5724 14.4256 40.6085 14.8732 41.5782C15.4036 42.7469 16.2988 43.5094 17.5835 43.9404C17.3348 43.2027 17.1359 42.5231 17.0613 41.8186C17.0281 41.5119 17.0116 41.2052 17.0199 40.8986C17.0364 40.509 17.3099 40.2355 17.6663 40.1941C18.0062 40.1526 18.3294 40.4013 18.4206 40.7825C18.5283 41.2301 18.4703 41.7025 18.5615 42.1584C18.7355 43.0038 19.0091 43.7995 19.5644 44.4791C20.5507 45.6975 22.2498 46.0954 23.7832 45.4737C23.8992 45.424 24.0152 45.366 24.1313 45.3245C24.554 45.1836 24.9435 45.3411 25.0844 45.6892C25.2419 46.0705 25.0844 46.4601 24.67 46.659C24.1064 46.9242 23.5179 47.0983 22.9046 47.1563C21.9017 47.2474 20.932 47.1397 20.0037 46.6921C18.8847 46.1451 17.7658 45.5981 16.6137 45.1339C14.6079 44.3134 13.5885 42.7469 13.1492 40.7162C13.0995 40.4841 13.058 40.2521 13.0083 40.02V37.7573L13 37.7739Z" fill="#896B3B"/>
<path d="M44.5128 17.4919C43.1038 17.4919 41.6865 17.4919 40.2775 17.4919C39.9045 17.4919 39.5232 17.5251 39.1585 17.5997C35.6194 18.2793 33.5308 22.0173 34.8486 25.3824C35.4371 26.8743 36.1747 28.3082 36.8461 29.767C36.929 29.9493 36.9953 29.9659 37.1445 29.825C37.3766 29.6012 37.6086 29.3774 37.8656 29.1868C38.1059 29.0044 38.1557 28.8387 38.0148 28.5486C37.4511 27.3633 36.9124 26.1615 36.3654 24.968C36.009 24.1806 35.9344 23.3435 36.1001 22.5064C36.5229 20.4177 38.2137 19.0584 40.3852 19.0418C42.1175 19.0253 43.8498 19.0418 45.5903 19.0418C45.7727 19.0418 45.955 19.0418 46.1291 19.1164C46.4523 19.2407 46.6098 19.4811 46.5932 19.8292C46.5766 20.1856 46.3611 20.3928 46.0379 20.4757C45.897 20.5172 45.7312 20.5006 45.582 20.5006C43.8746 20.5006 42.1672 20.5006 40.4681 20.5006C38.1639 20.5006 36.8461 22.5644 37.8158 24.6613C38.28 25.6642 38.7607 26.6588 39.2083 27.67C39.3658 28.0347 39.5067 28.1093 39.8796 27.9187C41.8191 26.9821 43.8498 26.6505 45.9882 26.9738C47.132 27.1478 48.2177 27.4877 49.2455 28.0098C49.4112 28.0927 49.5687 28.2088 49.6848 27.9352C50.2484 26.6837 50.8783 25.4653 51.3673 24.1889C51.9558 22.639 50.986 20.9647 49.3781 20.5752C48.9222 20.4674 48.4581 20.5089 48.0022 20.4923C47.5132 20.4757 47.2231 20.2271 47.2065 19.8126C47.19 19.3734 47.4635 19.0833 47.9608 19.0335C48.1846 19.017 48.4084 19.0253 48.6321 19.0253C51.8812 19.075 53.8787 22.15 52.5691 25.1172C52.105 26.1615 51.5911 27.1893 51.1352 28.2419C50.7374 29.137 50.6877 28.8221 51.3922 29.452C51.5165 29.568 51.6574 29.6675 51.7651 29.7918C51.9806 30.0322 52.0801 29.9576 52.1961 29.6924C52.8095 28.3414 53.4394 27.0069 54.061 25.6559C54.55 24.595 54.6744 23.4678 54.4837 22.3323C54.0113 19.4894 51.5994 17.467 48.715 17.4588C47.3143 17.4588 45.9218 17.4588 44.5211 17.4588M44.8609 16C46.1622 16.0497 47.7702 15.942 49.3781 16.058C52.4199 16.2735 55.1551 18.6025 55.8099 21.5698C56.1911 23.2938 56.0005 24.9514 55.238 26.5511C54.55 28.0015 53.8952 29.4686 53.2073 30.919C53.0913 31.1677 53.0996 31.3418 53.2488 31.5738C54.4174 33.3144 55.0473 35.2539 55.0142 37.3425C54.9479 41.3375 53.1907 44.4125 49.7676 46.5094C49.5687 46.6338 49.3532 46.6669 49.1294 46.6669C47.6375 46.6669 46.1373 46.6669 44.6454 46.6669C44.1067 46.6669 43.7835 46.3934 43.7835 45.9624C43.7835 45.5314 44.1067 45.2662 44.6537 45.2662C45.9964 45.2662 47.3392 45.2662 48.6819 45.2662C48.9471 45.2662 49.1709 45.1999 49.3864 45.0507C52.0967 43.1941 53.4974 40.6413 53.5306 37.3425C53.572 33.1569 50.4887 29.0873 45.7312 28.3828C41.7528 27.7943 37.8407 29.9576 36.183 33.6376C36.125 33.762 36.0753 33.8946 36.009 34.0189C35.8018 34.3836 35.3956 34.5162 35.0392 34.3504C34.7077 34.1929 34.5585 33.8117 34.7077 33.4221C34.9564 32.7508 35.2962 32.1209 35.7106 31.5407C35.8846 31.292 35.8929 31.0848 35.7686 30.8113C35.0392 29.2531 34.285 27.7114 33.6136 26.1284C31.7322 21.719 34.5088 16.8123 39.2746 16.1243C40.3189 15.9751 41.3715 16.0414 42.4159 16.0414C43.1287 16.0414 43.8415 16.0414 44.8609 16.0414" fill="#896B3B"/>
<path d="M23.6003 38.9752C23.5837 39.1824 23.6831 39.315 23.8572 39.4145C24.7026 39.8704 25.548 40.3345 26.3852 40.7987C26.6006 40.923 26.7001 40.8733 26.8079 40.6661C26.9653 40.3428 27.1311 40.0113 27.33 39.7129C27.5207 39.4394 27.4792 39.2902 27.1808 39.1327C26.4266 38.7432 25.6806 38.3287 24.9347 37.9143C24.3214 37.5745 24.0976 37.6491 23.7826 38.2956C23.6831 38.5111 23.6168 38.7432 23.592 38.9752M36.3892 37.1849C36.3643 37.1435 36.356 37.1103 36.3312 37.0938C36.2897 37.0606 36.2317 37.044 36.182 37.0109C34.6735 36.1738 33.1982 36.3478 31.7643 37.1849C29.858 38.2956 28.623 39.9781 27.7942 41.9673C26.9902 43.8819 26.7084 45.8629 27.272 47.9018C27.6781 49.3605 28.6064 50.3386 30.1232 50.8193C29.1866 48.0344 29.5182 45.3904 30.7034 42.8044C31.8886 40.2185 33.7203 38.2707 36.3892 37.1767M31.0349 47.6283C31.0266 48.1173 31.0764 48.5897 31.1427 49.0622C31.5654 52.0625 34.2757 53.5793 37.0108 52.104C38.1132 51.5072 39.0498 50.6784 39.8123 49.6755C41.1053 47.9764 41.8512 46.0618 42.017 43.9317C42.1247 42.6055 41.9756 41.3291 41.3042 40.1687C40.5997 38.9421 39.5388 38.3039 38.0883 38.3619C37.1849 38.4033 36.356 38.6768 35.6101 39.1824C32.618 41.2048 31.2173 44.0974 31.0266 47.6366M43.4923 43.3763C43.2437 47.3879 41.702 50.7281 38.2707 52.9991C36.4389 54.2175 34.4663 54.5325 32.3942 53.513C31.1924 52.9245 29.9574 52.3941 28.739 51.8222C26.9488 50.9768 26.1033 49.4434 25.7138 47.5951C25.3657 45.9457 25.5397 44.3129 26.0039 42.7133C26.0951 42.39 26.0288 42.2408 25.7387 42.0916C24.9347 41.6689 24.1473 41.2048 23.3433 40.7904C22.3321 40.2765 22.0006 39.8206 22.1995 38.4696C22.3321 37.5828 22.8212 36.8948 23.5837 36.4141C24.0893 36.0992 24.5949 36.0743 25.1336 36.3727C26.0868 36.9114 27.0482 37.4087 27.9931 37.9558C28.2915 38.1215 28.4572 38.1132 28.6976 37.8563C29.9574 36.4887 31.4328 35.4527 33.2976 35.1211C34.2757 34.9471 35.2454 35.0051 36.1737 35.4278C37.533 36.0494 38.8923 36.6711 40.2433 37.3093C42.017 38.1464 42.8624 39.6632 43.2768 41.4949C43.4094 42.1082 43.4923 42.7299 43.4757 43.3763" fill="#896B3B"/>
<path d="M44.2469 33.9357C43.1446 33.9937 42.1251 34.549 41.4454 35.6928C41.3874 35.784 41.346 35.8917 41.288 35.9912C41.0393 36.4305 40.6663 36.5714 40.2768 36.3725C39.9038 36.1818 39.7878 35.784 40.0033 35.3198C40.4177 34.433 41.0393 33.7285 41.8764 33.2229C44.8603 31.4243 48.6232 33.0903 49.3111 36.5051C49.8996 39.4143 47.5457 42.3566 44.6613 42.3235C44.1723 42.3235 43.8739 42.0831 43.8491 41.6687C43.8242 41.2626 44.0811 40.9642 44.5702 40.9228C45.9046 40.7901 46.9406 40.2017 47.5623 38.9916C48.7558 36.6791 47.0484 33.9191 44.2386 33.9357" fill="#896B3B"/>
</svg>
