<svg width="70" height="70" viewBox="0 0 70 70" fill="none" xmlns="http://www.w3.org/2000/svg">
<circle cx="35" cy="35" r="31" stroke="#896B3B" stroke-width="2"/>
<path d="M44.4269 39.8215L41.8055 33.6163C41.7948 33.591 41.7831 33.5663 41.7702 33.542C41.2434 32.5515 40.1994 31.9666 39.0832 32.0197C38.9275 31.9948 38.7692 31.9818 38.6097 31.9818H37.6573L37.6102 31.7942H42.0268C42.5363 31.7942 42.9494 31.3812 42.9494 30.8717V23.8971C42.9494 19.5426 39.4068 16 35.0523 16C30.6977 16 27.1552 19.5426 27.1552 23.8971V30.8717C27.1552 31.3812 27.5683 31.7942 28.0777 31.7942H32.4531L32.4062 31.9818H31.4948C31.3353 31.9818 31.1769 31.9948 31.0211 32.0198C29.9053 31.967 28.8613 32.5516 28.3343 33.5421C28.3214 33.5664 28.3097 33.5911 28.2989 33.6164L27.1335 36.3752C25.4434 36.6487 23.8867 37.0084 22.5072 37.4458C16.3025 39.4131 15 42.5768 15 44.8844C15 47.192 16.3025 50.3557 22.5076 52.3232C23.1879 52.539 23.92 52.7382 24.6835 52.9155C24.7538 52.9318 24.824 52.9397 24.8931 52.9397C25.3124 52.9397 25.6919 52.6517 25.7909 52.2256C25.9062 51.7292 25.5972 51.2335 25.1009 51.1182C24.3843 50.9517 23.6995 50.7654 23.0652 50.5644C18.9959 49.2741 16.8451 47.31 16.8451 44.8845C16.8451 42.459 18.9959 40.4948 23.0652 39.2046C24.0428 38.8947 25.1197 38.6255 26.2782 38.4006L25.678 39.8212C20.7948 40.9016 18.114 42.6914 18.114 44.8847C18.114 46.7025 19.9587 48.2482 23.4486 49.3549C26.5614 50.3419 30.6823 50.8855 35.0524 50.8855C39.4224 50.8855 43.5433 50.3419 46.6561 49.3549C50.146 48.2484 51.9907 46.7025 51.9907 44.8847C51.9908 42.6916 49.3101 40.9018 44.4269 39.8215ZM40.2789 34.7434L42.7867 40.6798C42.789 40.6854 42.7915 40.691 42.7939 40.6964C42.8192 40.7531 42.8405 40.8116 42.8581 40.8715C42.8585 40.873 42.8586 40.8743 42.859 40.8758C42.9611 41.2282 42.9264 41.6379 42.763 42.0525C42.7627 42.0534 42.7622 42.0544 42.7619 42.0553C42.7387 42.114 42.713 42.1726 42.6847 42.2313L39.1446 46.2612L38.3472 45.5531L40.9021 42.5492C41.128 42.2836 41.1849 41.9134 41.0492 41.5922L38.7853 36.237L40.2789 34.7434ZM29.0006 29.949V23.897C29.0006 20.56 31.7156 17.8451 35.0526 17.8451C38.3896 17.8451 41.1046 20.56 41.1046 23.897V29.949H38.7629C38.7675 29.9445 38.7716 29.9396 38.7763 29.9351C38.834 29.8772 38.8905 29.818 38.9455 29.7571C38.957 29.7445 38.968 29.7313 38.9794 29.7186C39.0249 29.6672 39.0693 29.6148 39.1128 29.5613C39.1263 29.5448 39.1399 29.5284 39.1532 29.5117C39.2047 29.4468 39.255 29.3809 39.3037 29.313C39.3108 29.3032 39.3175 29.2928 39.3246 29.2829C39.3668 29.2232 39.4078 29.1622 39.4477 29.1004C39.4601 29.0812 39.4725 29.062 39.4845 29.0427C39.5296 28.9708 39.5737 28.8981 39.6158 28.8236C39.6168 28.8218 39.6178 28.82 39.6189 28.8181C39.66 28.7449 39.6992 28.6701 39.7373 28.5944C39.7478 28.5736 39.7581 28.5527 39.7683 28.5316C39.8021 28.4624 39.8348 28.3923 39.8662 28.3211C39.8707 28.3109 39.8755 28.301 39.8799 28.2909C39.9146 28.2109 39.9472 28.1292 39.9788 28.0466C39.987 28.0249 39.995 28.003 40.0031 27.9813C40.0287 27.9116 40.0534 27.8411 40.0768 27.7699C40.0823 27.7529 40.0882 27.7363 40.0935 27.7194C40.1207 27.6341 40.1463 27.5475 40.1702 27.4599C40.1759 27.4386 40.1814 27.4171 40.1869 27.3957C40.206 27.3231 40.2239 27.2497 40.2407 27.1756C40.2456 27.1542 40.2507 27.1327 40.2554 27.1112C40.275 27.0207 40.2931 26.9291 40.3093 26.8365C40.3126 26.8177 40.3155 26.7985 40.3186 26.7794C40.3316 26.7015 40.3434 26.6228 40.354 26.5434C40.3573 26.5188 40.3606 26.4942 40.3637 26.4695C40.3755 26.3737 40.386 26.2772 40.3943 26.1794C40.3954 26.1663 40.3961 26.153 40.3972 26.14C40.404 26.0531 40.4095 25.9653 40.4136 25.8768C40.4148 25.8502 40.416 25.8236 40.417 25.7969C40.4207 25.6958 40.4233 25.5941 40.4233 25.4913V23.7432C40.4233 23.2337 40.0102 22.8206 39.5007 22.8206H30.6048C30.0953 22.8206 29.6822 23.2337 29.6822 23.7432V25.4912C29.6822 25.5952 29.6847 25.6979 29.6883 25.7999C29.6892 25.8269 29.6904 25.8538 29.6916 25.8807C29.6957 25.9709 29.7009 26.0604 29.7077 26.149C29.7087 26.1609 29.7092 26.1732 29.7102 26.1851C29.7184 26.2838 29.7285 26.3812 29.7401 26.4777C29.7431 26.5023 29.7463 26.5268 29.7495 26.5513C29.76 26.6327 29.7718 26.7133 29.7848 26.7931C29.7876 26.8104 29.79 26.8279 29.793 26.8451C29.809 26.9386 29.8267 27.0309 29.846 27.1221C29.8505 27.1434 29.8554 27.1645 29.8601 27.1857C29.8768 27.2615 29.8948 27.3364 29.9139 27.4106C29.9189 27.4301 29.9237 27.4498 29.9288 27.4691C29.9525 27.5574 29.9776 27.6446 30.0045 27.7305C30.0098 27.7475 30.0156 27.7642 30.0211 27.7812C30.0444 27.8534 30.0688 27.9246 30.0944 27.995C30.1016 28.015 30.1088 28.0352 30.1162 28.0551C30.1474 28.1381 30.1798 28.22 30.2142 28.3005C30.219 28.3117 30.2241 28.3227 30.2291 28.334C30.2598 28.4046 30.2918 28.474 30.325 28.5425C30.3344 28.5619 30.3438 28.5814 30.3534 28.6006C30.392 28.6783 30.4318 28.7548 30.4736 28.8296C30.4755 28.8328 30.4774 28.8359 30.4793 28.8391C30.5195 28.9107 30.5614 28.9806 30.6045 29.0496C30.6159 29.0678 30.6274 29.0859 30.6389 29.1039C30.6818 29.1708 30.7258 29.2367 30.7714 29.3011C30.7745 29.3055 30.7775 29.3101 30.7806 29.3145C30.8292 29.3826 30.8798 29.4488 30.9315 29.5139C30.9445 29.5303 30.9578 29.5465 30.9709 29.5628C31.0161 29.6184 31.0624 29.6729 31.1099 29.7262C31.1184 29.7358 31.1267 29.7458 31.1354 29.7553C31.1904 29.8161 31.2469 29.8751 31.3047 29.9329C31.31 29.9382 31.3151 29.9439 31.3204 29.9493H29.0006V29.949ZM33.1264 33.8268C33.5494 33.8268 33.9184 33.539 34.0213 33.1285L34.5308 31.0959L34.6721 30.5319C34.6873 30.4706 34.6963 30.4093 34.699 30.3486C34.7183 29.9235 34.44 29.5284 34.0128 29.4156C33.1716 29.1934 32.6117 28.7241 32.2404 28.1726C32.1786 28.0807 32.1219 27.9864 32.0702 27.8908C32.0442 27.8429 32.0195 27.7947 31.996 27.7461C31.5955 26.921 31.5273 26.0133 31.5273 25.4913V24.6659H38.5781V25.4913C38.5781 26.3261 38.4034 28.1394 36.9837 29.034C36.7207 29.1997 36.4151 29.3339 36.06 29.4244C35.9369 29.4559 35.8259 29.5107 35.7306 29.5829C35.683 29.6191 35.6393 29.6596 35.5999 29.7037C35.5802 29.7257 35.5616 29.7487 35.5443 29.7725C35.4223 29.939 35.3565 30.1451 35.3662 30.3589C35.369 30.42 35.3778 30.4818 35.3933 30.5435L35.5324 31.0966C35.5324 31.0966 35.5324 31.0966 35.5324 31.0967L36.0435 33.1292C36.1467 33.5393 36.5153 33.8268 36.9382 33.8268H38.5862L37.8369 34.5761L35.0526 37.3605L32.2683 34.5761L31.519 33.8268H33.1264ZM32.7277 37.6452L34.4002 39.3175C34.5733 39.4904 34.8079 39.5877 35.0525 39.5877C35.2972 39.5877 35.5318 39.4905 35.7048 39.3175L37.3771 37.6452L39.128 41.7872L37.3234 43.9088C35.823 43.9777 34.2817 43.9777 32.7814 43.9088L30.9767 41.7872L32.7277 37.6452ZM27.2462 40.8756C27.2466 40.8741 27.2468 40.8725 27.2472 40.8708C27.2647 40.8112 27.286 40.753 27.3111 40.6965C27.3135 40.6909 27.316 40.6854 27.3183 40.6799L29.8261 34.7435L31.3198 36.2373L29.0558 41.5925C28.92 41.9137 28.977 42.2839 29.2029 42.5495L31.7579 45.5534L30.9604 46.2616L27.4203 42.2316C27.3921 42.1731 27.3665 42.1145 27.3434 42.0561C27.3429 42.0549 27.3424 42.0536 27.3419 42.0524C27.1787 41.6377 27.1441 41.228 27.2462 40.8756ZM46.0987 47.5958C43.1614 48.5272 39.2385 49.04 35.0527 49.04C30.8668 49.04 26.9438 48.527 24.0067 47.5958C21.0195 46.6487 19.9596 45.5433 19.9596 44.8845C19.9596 44.0044 21.664 42.7133 25.3749 41.7879C25.4143 42.0755 25.4887 42.3652 25.5971 42.6536C25.6006 42.663 25.6043 42.6725 25.6079 42.682C25.6255 42.7281 25.6437 42.774 25.663 42.8199C25.6744 42.847 25.6865 42.8739 25.6985 42.9009C25.7129 42.9332 25.727 42.9657 25.7422 42.998C25.7707 43.0582 25.8004 43.1182 25.8318 43.178C25.8329 43.1799 25.8337 43.1818 25.8346 43.1836C25.8683 43.2476 25.9096 43.3073 25.9573 43.3617L30.1865 48.1761C30.3485 48.3606 30.5773 48.4728 30.8225 48.488C30.8416 48.4892 30.8606 48.4897 30.8796 48.4897C30.8864 48.4897 30.8932 48.4889 30.9002 48.4888C30.9112 48.4885 30.9221 48.4879 30.933 48.4873C30.9521 48.4862 30.9709 48.4846 30.9897 48.4823C30.9999 48.4811 31.01 48.4797 31.0201 48.4781C31.0392 48.4752 31.058 48.4717 31.0768 48.4676C31.0867 48.4654 31.0967 48.4631 31.1065 48.4607C31.1249 48.456 31.143 48.4507 31.1612 48.4448C31.1711 48.4416 31.181 48.4385 31.1908 48.435C31.2084 48.4287 31.2257 48.4215 31.2429 48.4141C31.2527 48.41 31.2625 48.406 31.272 48.4016C31.2891 48.3936 31.3057 48.3846 31.3223 48.3755C31.3314 48.3705 31.3407 48.366 31.3497 48.3606C31.367 48.3504 31.3837 48.339 31.4005 48.3275C31.4081 48.3223 31.4158 48.3177 31.4232 48.3123C31.447 48.295 31.47 48.2767 31.4922 48.257L33.6585 46.3334C33.6806 46.3137 33.7013 46.2931 33.7211 46.272C33.7277 46.265 33.7335 46.2576 33.7398 46.2503C33.7525 46.2358 33.7651 46.2212 33.7767 46.2059C33.7835 46.1972 33.7897 46.188 33.7962 46.1791C33.8064 46.1649 33.8164 46.1505 33.8256 46.1358C33.8317 46.1263 33.8375 46.1166 33.8432 46.1067C33.8518 46.092 33.8599 46.077 33.8676 46.0619C33.8727 46.0519 33.8776 46.042 33.8823 46.0319C33.8897 46.016 33.8964 45.9998 33.9029 45.9836C33.9067 45.9741 33.9107 45.9646 33.9141 45.955C33.9208 45.9364 33.9265 45.9176 33.9319 45.8987C33.9341 45.8911 33.9367 45.8837 33.9387 45.8761C33.9455 45.8495 33.9516 45.8225 33.9561 45.7953C34.6868 45.8108 35.4188 45.8108 36.1494 45.7953C36.1539 45.8224 36.1599 45.8494 36.1668 45.8761C36.1688 45.8838 36.1714 45.8911 36.1736 45.8987C36.179 45.9176 36.1847 45.9365 36.1914 45.955C36.1948 45.9645 36.1987 45.9741 36.2026 45.9836C36.209 45.9998 36.2157 46.0161 36.2232 46.032C36.2279 46.042 36.2327 46.0519 36.2378 46.0617C36.2456 46.0768 36.2537 46.0919 36.2622 46.1067C36.268 46.1165 36.2737 46.1262 36.2798 46.1358C36.2891 46.1504 36.299 46.1648 36.3092 46.179C36.3156 46.188 36.3219 46.1971 36.3286 46.2059C36.3403 46.221 36.3529 46.2356 36.3656 46.2502C36.3718 46.2574 36.3776 46.2648 36.3842 46.2718C36.4039 46.293 36.4247 46.3136 36.4469 46.3332L38.6132 48.2569C38.6351 48.2764 38.6581 48.2947 38.6816 48.3118C38.691 48.3187 38.7008 48.3246 38.7103 48.331C38.7247 48.3408 38.7391 48.3507 38.7539 48.3596C38.7661 48.3668 38.7787 48.3731 38.791 48.3798C38.8039 48.3867 38.8168 48.3938 38.83 48.4001C38.8434 48.4064 38.8571 48.412 38.8709 48.4177C38.8838 48.4231 38.8968 48.4286 38.91 48.4333C38.9237 48.4384 38.9378 48.4427 38.9518 48.447C38.9657 48.4514 38.9795 48.4555 38.9935 48.4592C39.007 48.4627 39.0206 48.4658 39.0344 48.4687C39.0496 48.4719 39.0648 48.4748 39.0802 48.4773C39.0931 48.4793 39.1061 48.4811 39.1191 48.4826C39.1356 48.4846 39.1522 48.4859 39.1689 48.4869C39.1814 48.4876 39.1938 48.4884 39.2063 48.4886C39.2127 48.4887 39.2192 48.4896 39.2256 48.4896C39.2445 48.4896 39.2636 48.489 39.2827 48.4879C39.5278 48.4727 39.7568 48.3603 39.9188 48.1759L44.148 43.3615C44.1958 43.3072 44.2369 43.2475 44.2707 43.1835C44.2717 43.1815 44.2725 43.1796 44.2735 43.1778C44.3048 43.1182 44.3345 43.0584 44.3629 42.9983C44.3785 42.9653 44.3929 42.9322 44.4075 42.8991C44.4191 42.8729 44.4309 42.8467 44.4419 42.8206C44.4616 42.774 44.4801 42.7273 44.498 42.6805C44.5012 42.6719 44.5046 42.6634 44.5078 42.6547C44.6163 42.3661 44.6908 42.0761 44.7304 41.7882C48.4418 42.7133 50.1457 44.0041 50.1457 44.8843C50.1458 45.5433 49.0859 46.6487 46.0987 47.5958Z" fill="#896B3B"/>
<path d="M28.5765 52.3642C28.5644 52.3052 28.5469 52.247 28.5239 52.1917C28.5009 52.1355 28.4721 52.0819 28.4389 52.0321C28.4048 51.9813 28.3662 51.9343 28.3236 51.8919C28.2812 51.8494 28.2342 51.8107 28.1834 51.7775C28.1336 51.7443 28.0801 51.7157 28.0247 51.6926C27.9685 51.6696 27.9104 51.6511 27.8522 51.64C27.7332 51.6161 27.6105 51.6161 27.4915 51.64C27.4325 51.6511 27.3743 51.6696 27.319 51.6926C27.2627 51.7156 27.2094 51.7443 27.1596 51.7775C27.1087 51.8107 27.0616 51.8495 27.0193 51.8919C26.9768 51.9343 26.9381 51.9813 26.9049 52.0321C26.8718 52.0819 26.8431 52.1354 26.82 52.1917C26.797 52.2471 26.7795 52.3052 26.7675 52.3642C26.7554 52.4233 26.749 52.4841 26.749 52.5441C26.749 52.6041 26.7554 52.665 26.7675 52.7249C26.7795 52.783 26.797 52.8412 26.82 52.8975C26.843 52.9529 26.8718 53.0064 26.9049 53.0562C26.9381 53.1069 26.9769 53.1539 27.0193 53.1964C27.0617 53.2389 27.1087 53.2775 27.1596 53.3117C27.2094 53.3449 27.2628 53.3735 27.319 53.3966C27.3745 53.4196 27.4325 53.4372 27.4915 53.4492C27.5506 53.4612 27.6114 53.4667 27.6714 53.4667C27.7313 53.4667 27.7923 53.4612 27.8522 53.4492C27.9104 53.4372 27.9685 53.4196 28.0247 53.3966C28.0801 53.3736 28.1336 53.3449 28.1834 53.3117C28.2342 53.2775 28.2812 53.2389 28.3236 53.1964C28.4961 53.0248 28.594 52.7877 28.594 52.5441C28.594 52.4841 28.5884 52.4233 28.5765 52.3642Z" fill="#896B3B"/>
<path d="M50.487 38.6092C50.0333 38.3773 49.4776 38.5567 49.2453 39.0103C49.0132 39.4639 49.1929 40.0196 49.6464 40.2519C52.0448 41.4791 53.261 43.0378 53.261 44.8844C53.261 47.3101 51.1101 49.2741 47.0408 50.5643C43.8074 51.5895 39.5502 52.1541 35.0534 52.1541C34.544 52.1541 34.1309 52.5671 34.1309 53.0767C34.1309 53.5862 34.544 53.9992 35.0534 53.9992C39.7342 53.9992 44.1895 53.404 47.5984 52.3231C53.8035 50.3556 55.106 47.1919 55.106 44.8843C55.106 43.1 54.3045 40.5628 50.487 38.6092Z" fill="#896B3B"/>
<path d="M48.2983 38.1685C48.2874 38.1094 48.2698 38.0513 48.2466 37.996C48.2236 37.9406 48.195 37.8871 48.1617 37.8363C48.1276 37.7865 48.0889 37.7386 48.0464 37.6961C47.8748 37.5245 47.6368 37.4268 47.3942 37.4268C47.1515 37.4268 46.9135 37.5245 46.742 37.6961C46.6995 37.7395 46.6607 37.7865 46.6276 37.8363C46.5944 37.8871 46.5658 37.9406 46.5427 37.996C46.5196 38.0514 46.5021 38.1095 46.4902 38.1685C46.4782 38.2285 46.4717 38.2884 46.4717 38.3493C46.4717 38.4093 46.4781 38.4692 46.4902 38.5292C46.5021 38.5882 46.5197 38.6464 46.5427 38.7017C46.5658 38.7571 46.5944 38.8106 46.6276 38.8614C46.6608 38.9112 46.6996 38.9591 46.742 39.0016C46.9135 39.1732 47.1515 39.2719 47.3942 39.2719C47.6368 39.2719 47.8748 39.1732 48.0464 39.0016C48.0889 38.9591 48.1276 38.9121 48.1617 38.8614C48.195 38.8106 48.2235 38.7571 48.2466 38.7017C48.2697 38.6464 48.2872 38.5882 48.2983 38.5292C48.3104 38.4692 48.3168 38.4093 48.3168 38.3493C48.3168 38.2884 48.3105 38.2284 48.2983 38.1685Z" fill="#896B3B"/>
</svg>
