<svg width="70" height="70" viewBox="0 0 70 70" fill="none" xmlns="http://www.w3.org/2000/svg">
<circle cx="35" cy="35" r="31" stroke="#896B3B" stroke-width="2"/>
<path d="M40.3904 42.5449C40.3044 42.5449 40.2172 42.5504 40.1312 42.5614C39.2264 42.6759 38.5147 43.3867 38.4007 44.29C38.3284 44.8631 38.5046 45.4388 38.8842 45.8694C39.2651 46.3014 39.814 46.5492 40.3903 46.5492H40.3904C40.4764 46.5492 40.5635 46.5438 40.6497 46.5328C41.5543 46.4182 42.2659 45.7075 42.3799 44.8044C42.4524 44.2313 42.2762 43.6555 41.8966 43.2249C41.5156 42.7928 40.9667 42.5449 40.3904 42.5449ZM41.1124 44.6442C41.072 44.9634 40.8099 45.2246 40.4891 45.2653C40.4561 45.2696 40.4229 45.2715 40.3905 45.2715H40.3904C40.1807 45.2715 39.981 45.1814 39.8425 45.0244C39.7033 44.8666 39.6414 44.6625 39.6683 44.45C39.7086 44.1307 39.9707 43.8695 40.2916 43.8288C40.3247 43.8246 40.3578 43.8226 40.3903 43.8226C40.6 43.8226 40.7997 43.9128 40.9381 44.0697C41.0773 44.2275 41.1393 44.4316 41.1124 44.6442Z" fill="#896B3B"/>
<path d="M27.7967 42.5449C27.7106 42.5449 27.6233 42.5504 27.5371 42.5614C26.6324 42.676 25.9208 43.387 25.8069 44.2902C25.7346 44.8633 25.9109 45.4388 26.2904 45.8694C26.6713 46.3013 27.2203 46.5491 27.7966 46.5492H27.7967C27.8825 46.5492 27.9695 46.5438 28.0554 46.5328C28.9602 46.4184 29.6719 45.7078 29.7861 44.8047C29.8586 44.2315 29.6825 43.6557 29.3028 43.2249C28.9219 42.7928 28.3728 42.5449 27.7967 42.5449ZM28.5186 44.6443C28.4782 44.9635 28.216 45.2247 27.8952 45.2653C27.8623 45.2696 27.8291 45.2715 27.7967 45.2715H27.7967C27.587 45.2715 27.3872 45.1814 27.2487 45.0244C27.1095 44.8666 27.0477 44.6626 27.0745 44.4501C27.1148 44.1307 27.3768 43.8695 27.6977 43.8288C27.7308 43.8246 27.764 43.8226 27.7966 43.8226C28.0062 43.8226 28.2059 43.9127 28.3444 44.0697C28.4836 44.2276 28.5455 44.4318 28.5186 44.6443Z" fill="#896B3B"/>
<path d="M55.9948 41.9664L52.154 38.1317C52.72 37.6861 53.1302 37.0606 53.3107 36.3295C53.346 36.1864 53.3718 36.0429 53.3881 35.8997C53.5028 34.8966 53.1587 33.904 52.4273 33.1778C52.4263 33.1769 52.4253 33.176 52.4243 33.175C52.3895 33.1406 52.3541 33.107 52.3179 33.0742C52.0577 32.8385 51.7638 32.6466 51.4414 32.5023C51.1169 32.3577 50.7764 32.2677 50.4269 32.2339C50.377 32.2291 50.3269 32.2254 50.2766 32.2228C45.4861 31.9853 41.2918 29.9612 38.5608 28.2558C38.291 28.0872 38.0234 27.9143 37.7582 27.7375C37.7334 27.7209 37.7089 27.7044 37.6842 27.6879C37.5781 27.6168 37.4724 27.5448 37.3671 27.4725C37.3331 27.449 37.2992 27.4256 37.2656 27.4023C37.2558 27.3955 37.2462 27.3887 37.2364 27.3819C37.1588 27.328 37.0817 27.2736 37.0045 27.2191C36.9685 27.1937 36.9329 27.1683 36.8975 27.143C36.8666 27.121 36.8356 27.0988 36.8052 27.077C36.7589 27.0437 36.7128 27.01 36.6666 26.9766C36.6386 26.9561 36.6099 26.9355 36.5822 26.915C36.5243 26.8726 36.4674 26.8305 36.411 26.7886C36.3878 26.7713 36.3646 26.7541 36.3416 26.737C36.2829 26.6931 36.2246 26.6494 36.1674 26.6061C36.1401 26.5853 36.1133 26.5648 36.0863 26.5442C36.0468 26.514 36.0072 26.4839 35.9686 26.4542C35.9392 26.4316 35.9105 26.4092 35.8816 26.3869C35.8463 26.3595 35.8109 26.332 35.7762 26.3049C35.7471 26.2821 35.7184 26.2596 35.6898 26.2371C35.6566 26.211 35.6237 26.185 35.5913 26.1594C35.5626 26.1367 35.5343 26.114 35.5061 26.0915C35.4752 26.0668 35.4447 26.0424 35.4146 26.018C35.3866 25.9954 35.3585 25.9728 35.331 25.9505C35.3014 25.9265 35.2722 25.9028 35.2433 25.8791C35.217 25.8576 35.1906 25.8361 35.1649 25.815C35.1351 25.7904 35.1062 25.7665 35.0772 25.7424C35.0534 25.7227 35.0293 25.7027 35.0061 25.6835C34.9738 25.6566 34.9428 25.6304 34.9115 25.6042C34.8746 25.5731 34.8384 25.5425 34.8028 25.5123C34.7743 25.4881 34.7456 25.4637 34.7179 25.4401C34.6941 25.4197 34.6714 25.4001 34.6484 25.3802C34.6262 25.3611 34.6037 25.3418 34.5821 25.3231C34.5591 25.3032 34.537 25.2839 34.5148 25.2645C34.4946 25.2469 34.4743 25.2291 34.4547 25.2119C34.4326 25.1924 34.4111 25.1735 34.3899 25.1548C34.3716 25.1386 34.3534 25.1225 34.3357 25.1068C34.3151 25.0885 34.2948 25.0705 34.2748 25.0526C34.2574 25.0369 34.2402 25.0216 34.2234 25.0065C34.2044 24.9893 34.1855 24.9724 34.1673 24.9559C34.1515 24.9416 34.1362 24.9277 34.1211 24.9139C34.1035 24.8979 34.0857 24.8817 34.069 24.8664C34.0542 24.853 34.0404 24.8402 34.0263 24.8273C34.0101 24.8123 33.9934 24.7971 33.9781 24.7829C33.9656 24.7714 33.9543 24.7608 33.9425 24.7497C33.9114 24.7209 33.8821 24.6934 33.8547 24.6676C33.8457 24.6592 33.8362 24.6502 33.8276 24.6421C33.8141 24.6294 33.802 24.6178 33.7894 24.6059C33.7803 24.5972 33.7708 24.5883 33.7622 24.5801C33.7504 24.5688 33.7396 24.5585 33.7289 24.5482C33.7211 24.5407 33.7132 24.5332 33.7061 24.5262C33.6965 24.517 33.6877 24.5084 33.679 24.4999C33.6716 24.4928 33.6642 24.4856 33.6575 24.4791C33.6501 24.4719 33.6431 24.465 33.6364 24.4585C33.6336 24.4558 33.6312 24.4533 33.6285 24.4507L32.1502 21.3629C32.0323 21.1166 31.7701 20.9728 31.4998 21.0043L19.7374 22.3803C19.4434 22.4147 19.2115 22.6466 19.1771 22.9405L18.7909 26.2383L17.1656 32.7423C17.1193 32.9276 17.0827 33.1135 17.0559 33.2995C17.0157 33.5784 16.9972 33.8575 17.0003 34.1349C17.0111 35.0984 17.2832 36.0408 17.8001 36.8861C17.8036 36.8917 17.807 36.8974 17.8105 36.903C17.8361 36.9444 17.8605 36.9863 17.8873 37.0272C18.1732 37.4653 18.5205 37.8556 18.9129 38.1918C18.9342 38.2101 18.9556 38.2287 18.9771 38.2467C19.0139 38.2772 19.051 38.3071 19.0885 38.3366C19.1219 38.363 19.1558 38.389 19.19 38.4146C19.2209 38.4378 19.2516 38.4612 19.2829 38.4838C19.3427 38.5269 19.4035 38.5689 19.4652 38.6097C19.4728 38.6148 19.4803 38.6202 19.488 38.6253C19.562 38.6738 19.6377 38.7202 19.7143 38.7653C19.7279 38.7733 19.7417 38.7809 19.7553 38.7887C19.8201 38.8261 19.8857 38.8622 19.9522 38.897C19.9674 38.9051 19.9826 38.9129 19.998 38.9207C20.069 38.9571 20.1411 38.9922 20.2141 39.0256C20.222 39.0293 20.2299 39.0331 20.2379 39.0368C20.4035 39.1117 20.5734 39.179 20.7475 39.2379C20.7625 39.243 20.7777 39.2477 20.7928 39.2527C20.861 39.2752 20.9298 39.2964 20.9992 39.3162C21.0228 39.323 21.0465 39.3297 21.0703 39.3361C21.1342 39.3535 21.1985 39.3697 21.2633 39.3848C21.2871 39.3904 21.3109 39.3964 21.3349 39.4017C21.4214 39.4207 21.5084 39.4384 21.5964 39.4534C21.6319 39.4595 21.668 39.4625 21.7041 39.4625H21.8075L24.3819 41.6887C23.9854 42.1601 23.6908 42.7077 23.5165 43.2924C23.5144 43.2992 23.5127 43.3059 23.5107 43.3127C23.4951 43.3658 23.4804 43.4192 23.4668 43.473C23.4618 43.4926 23.4572 43.5125 23.4525 43.5324C23.4426 43.5741 23.4331 43.6162 23.4244 43.6583C23.4193 43.683 23.4145 43.7075 23.4098 43.7323C23.4024 43.7714 23.3957 43.8108 23.3894 43.8503C23.3853 43.8758 23.381 43.9014 23.3774 43.927C23.3713 43.9692 23.3663 44.0115 23.3616 44.0539C23.3591 44.0764 23.3561 44.0987 23.3539 44.1212C23.3477 44.1856 23.3427 44.2502 23.3394 44.3149C23.3394 44.3156 23.3393 44.3162 23.3393 44.3167C23.3353 44.3937 23.3334 44.4704 23.3333 44.5469C23.3327 45.3113 23.5235 46.0462 23.8864 46.699C24.0678 47.0255 24.2922 47.3314 24.5572 47.6102C25.4086 48.506 26.5586 48.9995 27.7956 48.9995C27.7956 48.9995 27.7958 48.9995 27.7959 48.9995C27.8737 48.9995 27.953 48.9975 28.0312 48.9935C30.2837 48.8776 32.1377 47.0263 32.2522 44.7788C32.2559 44.7045 32.2578 44.6305 32.258 44.5568C32.2581 44.5262 32.2567 44.4959 32.2562 44.4655C32.2555 44.4228 32.2552 44.3803 32.2532 44.338C32.2514 44.2993 32.2481 44.2608 32.2455 44.2222C32.2431 44.1887 32.2411 44.1552 32.238 44.1219C32.234 44.0791 32.2286 44.0366 32.2233 43.994C32.2198 43.9655 32.2167 43.937 32.2126 43.9087C32.2061 43.8634 32.1985 43.8184 32.1907 43.7735C32.1862 43.7485 32.1822 43.7233 32.1773 43.6984C32.1683 43.6517 32.1583 43.6055 32.1478 43.5594C32.1426 43.5363 32.1375 43.5133 32.1319 43.4904C32.1205 43.4436 32.1082 43.397 32.0952 43.3507C32.0891 43.3286 32.0829 43.3068 32.0765 43.2849C32.0629 43.2386 32.0484 43.1926 32.0332 43.1467C32.026 43.1249 32.0185 43.1031 32.011 43.0814C31.9953 43.0364 31.9791 42.9916 31.9618 42.9472C31.9531 42.9246 31.944 42.9022 31.935 42.8799C31.9176 42.837 31.8999 42.7942 31.8812 42.7519C31.8705 42.7277 31.8592 42.7039 31.8481 42.68C31.8295 42.64 31.8109 42.6 31.791 42.5606C31.7776 42.5339 31.7634 42.5076 31.7495 42.4812C31.7304 42.445 31.7116 42.4089 31.6915 42.3733C31.6742 42.3425 31.6557 42.3123 31.6377 42.282C31.6193 42.2511 31.6014 42.22 31.5822 42.1895C31.5583 42.1516 31.5331 42.1144 31.5081 42.0773C31.493 42.0548 31.4786 42.0319 31.463 42.0095C31.4218 41.9506 31.3792 41.8924 31.3349 41.8353C31.3191 41.8149 31.302 41.7952 31.2858 41.7749C31.2584 41.7408 31.2314 41.7062 31.2028 41.6728L33.7583 39.4632H34.4928L37.0144 41.6436C36.5548 42.175 36.2277 42.8061 36.059 43.4816C36.0564 43.492 36.0539 43.5024 36.0514 43.5128C36.039 43.5636 36.0277 43.6146 36.0172 43.666C36.0135 43.684 36.0098 43.702 36.0063 43.72C35.9976 43.7652 35.9898 43.8107 35.9827 43.8563C35.9793 43.8778 35.9757 43.8991 35.9725 43.9206C35.9659 43.9663 35.9605 44.012 35.9554 44.0579C35.9531 44.0782 35.9503 44.0984 35.9484 44.1189C35.9421 44.1847 35.9369 44.2507 35.9335 44.317C35.8709 45.5487 36.3035 46.7185 37.1515 47.6107C38.0029 48.5065 39.153 48.9999 40.3899 49C40.39 49 40.39 49 40.39 49C40.3901 49 40.3901 49 40.3902 49C40.4681 49 40.5473 48.9979 40.6256 48.994C42.8781 48.8779 44.732 47.0264 44.8464 44.7791C44.8502 44.7058 44.8519 44.6328 44.8522 44.5601C44.8523 44.5259 44.8509 44.492 44.8503 44.458C44.8495 44.4206 44.8493 44.3831 44.8475 44.3458C44.8455 44.3006 44.8421 44.2559 44.8387 44.211C44.8368 44.186 44.8354 44.161 44.8331 44.1359C44.8285 44.084 44.8223 44.0324 44.8158 43.9808C44.8136 43.9641 44.8118 43.9472 44.8095 43.9305C44.8017 43.8734 44.7923 43.8166 44.7823 43.76C44.7805 43.75 44.7788 43.7399 44.777 43.7299C44.7656 43.6683 44.7528 43.6071 44.7389 43.5464C44.738 43.5424 44.737 43.5383 44.7361 43.5343C44.6135 43.0058 44.3948 42.5055 44.0867 42.0536C44.0854 42.0515 44.0841 42.0496 44.0828 42.0475C44.052 42.0026 44.0199 41.9585 43.9875 41.9146C43.9764 41.8996 43.9657 41.8845 43.9544 41.8696C43.9253 41.8314 43.8953 41.7938 43.865 41.7564C43.8549 41.744 43.8455 41.731 43.8353 41.7187L46.4474 39.4599C46.4557 39.4598 46.464 39.4597 46.4723 39.4596L49.8894 42.8714C50.0092 42.991 50.1715 43.0581 50.3408 43.0581H55.5439C55.8024 43.0581 56.0355 42.9024 56.1343 42.6635C56.2327 42.4239 56.1777 42.149 55.9948 41.9664ZM34.9642 27.2944C34.9645 27.2945 34.9648 27.2947 34.965 27.295C35.0127 27.3323 35.0612 27.3699 35.1103 27.4079C35.1277 27.4214 35.1449 27.4348 35.1625 27.4482C35.2229 27.4948 35.2844 27.5417 35.3468 27.5892C35.3526 27.5935 35.3582 27.5979 35.3639 27.6022C35.4335 27.655 35.5046 27.7083 35.5766 27.762C35.5901 27.7721 35.604 27.7824 35.6177 27.7925C35.6749 27.835 35.7328 27.8777 35.7913 27.9208C35.8132 27.9368 35.8352 27.9529 35.8574 27.969C35.91 28.0074 35.9632 28.046 36.017 28.0848C36.0403 28.1016 36.0636 28.1184 36.0871 28.1353C36.146 28.1776 36.2057 28.2201 36.266 28.2628C36.2836 28.2752 36.3009 28.2876 36.3187 28.3C36.3973 28.3553 36.4768 28.4109 36.5575 28.4668C36.5701 28.4755 36.5829 28.4842 36.5954 28.4929C36.6627 28.5394 36.7309 28.5859 36.7996 28.6329C36.8259 28.6507 36.8525 28.6685 36.8789 28.6863C36.9361 28.725 36.9939 28.7638 37.0521 28.8026C37.081 28.8219 37.11 28.8411 37.1391 28.8604C37.1644 28.8771 37.1893 28.8937 37.2147 28.9106L33.3569 32.7581L31.2843 30.9644L34.9642 27.2944ZM20.3874 23.591L31.195 22.3266L32.1356 24.291L24.1655 25.181L21.3237 25.4802C21.3204 25.4805 21.3171 25.481 21.3139 25.4814L20.1496 25.6222L20.3874 23.591ZM23.7607 39.4626H24.7618L25.958 40.4969C25.746 40.5943 25.5432 40.7087 25.35 40.8369L23.7607 39.4626ZM30.9763 44.7134C30.8944 46.3153 29.572 47.6347 27.9654 47.7174C27.9085 47.7203 27.8522 47.7218 27.7959 47.7218C27.7958 47.7218 27.7957 47.7218 27.7956 47.7218C26.9123 47.7217 26.0911 47.3695 25.4833 46.7299C25.37 46.6107 25.2671 46.4844 25.1749 46.3524C24.8064 45.8237 24.6105 45.1998 24.611 44.5456C24.611 44.4911 24.6125 44.4364 24.6153 44.3814C24.6154 44.3805 24.6154 44.3794 24.6155 44.3784C24.6181 44.3273 24.6222 44.2764 24.6274 44.2256C24.6288 44.2123 24.6308 44.1992 24.6323 44.1859C24.6369 44.1472 24.6415 44.1085 24.6475 44.07C24.6497 44.0557 24.6525 44.0417 24.6549 44.0275C24.6612 43.9903 24.6678 43.9531 24.6754 43.9162C24.6784 43.9012 24.682 43.8865 24.6853 43.8716C24.6933 43.8361 24.7014 43.8006 24.7106 43.7653C24.7149 43.749 24.7195 43.7329 24.724 43.7168C24.7331 43.684 24.7425 43.6513 24.7527 43.6188C24.7585 43.6 24.7647 43.5813 24.7708 43.5628C24.7803 43.5344 24.7902 43.5061 24.8003 43.478C24.8086 43.4555 24.8169 43.433 24.8257 43.4108C24.8342 43.3887 24.8433 43.3668 24.8524 43.3449C24.8641 43.317 24.8758 43.2892 24.8883 43.2618C24.8941 43.2488 24.9003 43.236 24.9062 43.2233C25.3607 42.2538 26.2963 41.5393 27.3921 41.3991C27.4229 41.3952 27.4538 41.391 27.4842 41.388C27.5312 41.3835 27.5784 41.3798 27.626 41.3773C27.6786 41.3746 27.7307 41.3735 27.7828 41.3733C27.8277 41.3732 27.8726 41.3741 27.9175 41.376C27.9212 41.376 27.925 41.376 27.9286 41.3762C28.0286 41.3806 28.1285 41.3896 28.2293 41.4033C28.2348 41.404 28.2405 41.404 28.2461 41.4046C28.8362 41.4868 29.3844 41.7304 29.8417 42.1145C29.8458 42.1182 29.8494 42.1223 29.8537 42.1259C29.9953 42.2455 30.1245 42.3754 30.241 42.5139C30.2463 42.5202 30.2514 42.5267 30.2566 42.5331C30.2884 42.5715 30.3193 42.6105 30.3492 42.6501C30.357 42.6606 30.3647 42.6711 30.3723 42.6817C30.3995 42.7187 30.4259 42.7563 30.4514 42.7945C30.4587 42.8055 30.466 42.8164 30.4732 42.8275C30.4991 42.8674 30.524 42.9077 30.548 42.9486C30.5533 42.9576 30.5586 42.9664 30.5637 42.9753C30.5906 43.0221 30.6162 43.0694 30.6406 43.1173C30.6422 43.1204 30.6439 43.1235 30.6454 43.1265C30.7519 43.3383 30.834 43.5617 30.8904 43.7929C30.8925 43.8012 30.8942 43.8095 30.8962 43.8178C30.9074 43.8653 30.9174 43.9131 30.9264 43.9612C30.9289 43.9743 30.9312 43.9876 30.9334 44.0007C30.941 44.0443 30.9475 44.0881 30.9532 44.132C30.9553 44.148 30.9574 44.164 30.9592 44.1802C30.964 44.2219 30.9677 44.2639 30.9709 44.306C30.9722 44.3235 30.9738 44.341 30.9748 44.3586C30.9772 44.4012 30.9785 44.444 30.9793 44.4869C30.9796 44.5034 30.9804 44.5197 30.9805 44.5362C30.9804 44.5951 30.9793 44.6541 30.9763 44.7134ZM26.7151 39.4626H28.8506L28.1054 40.107C28.1042 40.107 28.1031 40.107 28.1018 40.1069C28.0225 40.1016 27.9427 40.0983 27.8626 40.0971C27.8486 40.0969 27.8346 40.0962 27.8206 40.0961C27.8122 40.0961 27.8041 40.0955 27.7957 40.0955C27.7176 40.0955 27.6383 40.0975 27.5602 40.1015C27.56 40.1015 27.5599 40.1015 27.5597 40.1015C27.5272 40.1032 27.4943 40.1053 27.4613 40.1077L26.7151 39.4626ZM30.2361 40.8191C30.0402 40.6907 29.8356 40.5785 29.6232 40.4834L30.8037 39.4627H31.8047L30.2361 40.8191ZM36.4459 39.4626H37.4468L38.6124 40.4705C38.3977 40.5653 38.1915 40.6763 37.9956 40.8026L36.4459 39.4626ZM43.5701 44.7133C43.4887 46.3151 42.1663 47.6346 40.5596 47.7173C40.5025 47.7202 40.4461 47.7217 40.3898 47.7217C40.3897 47.7217 40.3897 47.7217 40.3897 47.7217C39.5063 47.7217 38.6851 47.3695 38.0774 46.7299C37.4729 46.0938 37.1645 45.2598 37.2092 44.3812C37.2119 44.3286 37.2161 44.2762 37.2215 44.2239C37.2231 44.2079 37.2255 44.1921 37.2274 44.1762C37.2317 44.1401 37.2362 44.104 37.2417 44.0681C37.2447 44.0487 37.2483 44.0296 37.2517 44.0103C37.2572 43.9785 37.2629 43.9468 37.2693 43.9153C37.2738 43.8933 37.2789 43.8715 37.2839 43.8497C37.2903 43.8219 37.2968 43.7941 37.304 43.7666C37.3105 43.7417 37.3174 43.7168 37.3244 43.6921C37.3309 43.6693 37.3377 43.6464 37.3447 43.6237C37.3537 43.5947 37.363 43.5658 37.3728 43.537C37.3782 43.5212 37.3839 43.5055 37.3896 43.4897C37.4023 43.4546 37.4152 43.4196 37.429 43.3851C37.4309 43.3805 37.4328 43.3759 37.4348 43.3712C37.8629 42.321 38.8462 41.5373 40.0056 41.3966C40.0399 41.3926 40.0713 41.3891 40.1013 41.3862C40.1406 41.3826 40.1799 41.3793 40.2196 41.3773C40.2283 41.3768 40.2368 41.377 40.2455 41.3766C40.4621 41.367 40.6766 41.3789 40.8885 41.4121C40.8922 41.4127 40.8959 41.4127 40.8996 41.4131C41.4817 41.5054 42.0212 41.7555 42.4699 42.1431C42.4752 42.1481 42.48 42.1535 42.4855 42.1582C42.5765 42.2376 42.662 42.3213 42.7424 42.4089C42.7456 42.4124 42.7487 42.416 42.752 42.4196C42.7884 42.4596 42.8236 42.5005 42.8578 42.542C42.862 42.5471 42.8661 42.5523 42.8702 42.5572C42.9045 42.5996 42.9377 42.6426 42.9697 42.6866C42.9718 42.6895 42.974 42.6924 42.976 42.6954C43.2201 43.0328 43.3941 43.4131 43.4893 43.8166C43.4893 43.8167 43.4894 43.8169 43.4894 43.8172C43.5023 43.8719 43.5135 43.9272 43.5236 43.9826C43.5246 43.9886 43.5258 43.9947 43.5268 44.0007C43.5354 44.0502 43.5426 44.1 43.5488 44.1499C43.5501 44.1605 43.5516 44.171 43.5528 44.1816C43.5581 44.2272 43.562 44.2731 43.5652 44.3192C43.5661 44.333 43.5675 44.3467 43.5683 44.3606C43.5709 44.4049 43.572 44.4496 43.5728 44.4942C43.573 44.5088 43.5738 44.5232 43.5738 44.5378C43.5743 44.5963 43.5731 44.6546 43.5701 44.7133ZM39.4003 39.4627H41.5357L40.7835 40.1132C40.7555 40.1106 40.7278 40.1089 40.7 40.1071C40.6572 40.1042 40.6144 40.1016 40.5713 40.0999C40.5214 40.0979 40.4716 40.0966 40.4216 40.0962C40.4109 40.0961 40.4004 40.0954 40.3897 40.0954C40.3803 40.0954 40.3707 40.0961 40.3612 40.0962C40.292 40.0965 40.223 40.0979 40.154 40.1015C40.1493 40.1018 40.1447 40.1021 40.1399 40.1023L39.4003 39.4627ZM42.8818 40.8531C42.6887 40.7226 42.4865 40.6083 42.2767 40.5106L43.4888 39.4627H44.4898L42.8818 40.8531ZM47.8517 38.0905C47.7994 38.0966 47.7471 38.1017 47.6947 38.1071C47.614 38.1155 47.5333 38.1242 47.4525 38.1312C47.4236 38.1336 47.3947 38.1354 47.3658 38.1377C47.148 38.1553 46.9296 38.1686 46.7111 38.1761C46.5492 38.1816 46.3872 38.1852 46.2253 38.1852H46.2054H43.251H37.6848H34.7304H33.5203H30.5659H24.9997H22.0453H21.7602C20.5627 37.9656 19.5493 37.2574 18.9304 36.2854C19.4114 36.5238 19.9282 36.6932 20.4652 36.7849C20.5008 36.791 20.5369 36.7941 20.5729 36.7941H24.8544C25.2073 36.7941 25.4932 36.5081 25.4932 36.1553C25.4932 35.8024 25.2073 35.5165 24.8544 35.5165H20.6289C19.7277 35.3512 18.9037 34.9015 18.2833 34.2401C18.267 33.8466 18.3061 33.4479 18.4049 33.0527L19.9337 26.9353L21.4622 26.7506L24.3032 26.4515L32.8688 25.495C32.8736 25.4996 32.8793 25.5049 32.8842 25.5097C32.9005 25.5253 32.9173 25.5414 32.9352 25.5585C32.9428 25.5658 32.9509 25.5733 32.9587 25.5808C32.976 25.5973 32.9939 25.6141 33.0126 25.6316C33.0209 25.6394 33.0293 25.6473 33.0378 25.6553C33.0582 25.6743 33.0793 25.694 33.1012 25.7144C33.1092 25.7218 33.1169 25.7289 33.1251 25.7365C33.1542 25.7635 33.1844 25.7913 33.2161 25.8203C33.2173 25.8214 33.2183 25.8224 33.2195 25.8234C33.2536 25.8546 33.2894 25.8872 33.3264 25.9207C33.3315 25.9253 33.337 25.9302 33.3421 25.9348C33.373 25.9628 33.4049 25.9915 33.4378 26.0209C33.4477 26.0297 33.4577 26.0386 33.4678 26.0475C33.4981 26.0746 33.5293 26.1022 33.5612 26.1304C33.5715 26.1394 33.5815 26.1483 33.5919 26.1574C33.6302 26.1911 33.6694 26.2254 33.7098 26.2607C33.7136 26.264 33.7172 26.2672 33.721 26.2705C33.7678 26.3111 33.8158 26.3527 33.8655 26.3952C33.8675 26.397 33.8698 26.3988 33.8718 26.4006C33.9035 26.4278 33.9358 26.4554 33.9688 26.4834L29.8957 30.5454C29.7699 30.6707 29.7021 30.8428 29.7085 31.0202C29.7147 31.1977 29.7946 31.3645 29.9288 31.4807L32.97 34.1127C33.0905 34.2169 33.2393 34.2685 33.3879 34.2685C33.5516 34.2685 33.7149 34.2059 33.8392 34.082L38.3241 29.6092C38.4829 29.7049 38.6447 29.8009 38.8117 29.8974C41.6603 31.5447 45.6729 33.2741 50.2131 33.4991C50.4307 33.5098 50.6435 33.5587 50.8471 33.6401C50.6223 34.2001 50.1671 34.6225 49.5695 34.8058C49.2248 34.9112 48.859 35.0118 48.4829 35.1049C47.3771 35.3779 46.237 35.5163 45.0942 35.5163H28.8888C28.536 35.5163 28.2501 35.8022 28.2501 36.1551C28.2501 36.508 28.536 36.7939 28.8888 36.7939H45.0941C46.34 36.7939 47.5831 36.643 48.7893 36.3451C49.1881 36.2465 49.5762 36.1396 49.9435 36.0273C50.7683 35.7743 51.4408 35.2214 51.8487 34.4963C51.8495 34.4978 51.8505 34.4992 51.8515 34.5007C51.8549 34.5065 51.858 34.5125 51.8614 34.5183C51.8779 34.5468 51.8936 34.5756 51.9085 34.6048C51.914 34.6155 51.9193 34.6264 51.9246 34.6372C51.9375 34.6635 51.9498 34.6901 51.9616 34.7169C51.9659 34.7267 51.9704 34.7364 51.9745 34.7463C51.9896 34.7823 52.0038 34.8186 52.0168 34.8554C52.0184 34.8602 52.0199 34.8652 52.0216 34.8701C52.0327 34.9023 52.0428 34.9347 52.0522 34.9673C52.0554 34.9787 52.0585 34.9901 52.0615 35.0015C52.0691 35.0296 52.076 35.0579 52.0823 35.0863C52.0847 35.0969 52.0872 35.1074 52.0894 35.1181C52.0972 35.1563 52.1043 35.1948 52.1099 35.2334C52.1104 35.2372 52.1107 35.241 52.1113 35.2448C52.1161 35.2798 52.1201 35.3149 52.1231 35.3503C52.1241 35.3621 52.1249 35.374 52.1258 35.3859C52.1278 35.4148 52.1291 35.4439 52.1299 35.473C52.1301 35.4844 52.1306 35.4958 52.1307 35.5073C52.131 35.5466 52.1306 35.5862 52.1286 35.6258C52.1286 35.6282 52.1282 35.6306 52.1281 35.6331C52.1261 35.6703 52.123 35.7076 52.119 35.7449C52.1177 35.7569 52.1161 35.769 52.1146 35.781C52.1109 35.8103 52.1066 35.8394 52.1017 35.8686C52.0997 35.8805 52.0978 35.8924 52.0956 35.9042C52.0882 35.944 52.08 35.9836 52.0702 36.0233C51.9131 36.6592 51.474 37.165 50.8798 37.4093C50.8792 37.4095 50.8785 37.4096 50.8779 37.4099C50.8466 37.4227 50.8186 37.4334 50.7918 37.4433C50.7615 37.4541 50.7314 37.4651 50.7004 37.4746C50.528 37.5273 50.3504 37.5788 50.1689 37.6287C49.9874 37.6787 49.8019 37.7272 49.6138 37.7737C49.4852 37.8054 49.356 37.8349 49.2265 37.8631C49.1795 37.8733 49.1321 37.8825 49.0848 37.8922C49.0033 37.909 48.9218 37.9256 48.84 37.941C48.7805 37.9522 48.7208 37.9626 48.6611 37.9729C48.5923 37.9849 48.5234 37.9965 48.4544 38.0076C48.3875 38.0182 48.3205 38.0284 48.2534 38.038C48.1926 38.0468 48.1318 38.0549 48.0709 38.063C47.998 38.0725 47.9249 38.082 47.8517 38.0905ZM50.6047 41.7796L48.1613 39.3402C48.2027 39.335 48.2438 39.3284 48.285 39.3228C48.3866 39.3091 48.4883 39.2956 48.5896 39.2798C48.6449 39.2713 48.6999 39.2612 48.7552 39.2521C48.8485 39.2365 48.9418 39.2216 49.0347 39.2044C49.1093 39.1906 49.1834 39.1748 49.2578 39.16C49.3273 39.1461 49.3972 39.1334 49.4665 39.1184C49.4704 39.1176 49.4741 39.1167 49.478 39.1158C49.6261 39.0839 49.7737 39.05 49.9206 39.0138C50.0149 38.9904 50.1084 38.9665 50.2014 38.9424C50.2328 38.9342 50.2636 38.9258 50.2949 38.9176C50.3565 38.9013 50.4178 38.885 50.4788 38.8683C50.5144 38.8585 50.5496 38.8486 50.5851 38.8387C50.6411 38.823 50.6969 38.8074 50.7524 38.7914C50.7879 38.7812 50.8232 38.7709 50.8585 38.7604C50.8887 38.7516 50.9193 38.7429 50.9492 38.734L53.9997 41.7796H50.6047Z" fill="#896B3B"/>
</svg>
