<svg width="70" height="70" viewBox="0 0 70 70" fill="none" xmlns="http://www.w3.org/2000/svg">
<circle cx="35" cy="35" r="31" stroke="#896B3B" stroke-width="2"/>
<path d="M53.8108 44.1895V43.0336C53.8108 40.6913 51.9052 38.7857 49.5629 38.7857H46.5535C46.5782 38.7164 46.6003 38.6458 46.6163 38.5727L47.9907 32.5598C48.1255 31.948 47.9439 31.3163 47.5052 30.8702L45.6566 28.9887C45.4188 28.7466 45.0296 28.7433 44.7875 28.9811C44.5454 29.219 44.5419 29.6081 44.7799 29.8502L46.6287 31.7318C46.775 31.8804 46.8354 32.0912 46.7914 32.2906L45.4172 38.3028C45.3457 38.6257 45.0195 38.8443 44.684 38.7705C44.3529 38.6972 44.1431 38.3683 44.2153 38.042L45.423 32.7798C45.4863 32.5192 45.4076 32.2394 45.2216 32.0534L42.0602 28.8354C41.8857 28.6578 41.6211 28.6031 41.3903 28.6968C41.1596 28.7906 41.0083 29.0145 41.0073 29.2637L40.9688 38.7855H39.7396L39.7738 30.2699C39.7738 30.2654 39.7738 30.2608 39.7738 30.2563L39.7897 26.3046C39.7906 26.0616 39.9111 25.8439 40.1035 25.7367C40.3458 25.6023 40.6495 25.6455 40.8427 25.8424L42.584 27.6141C42.8219 27.8562 43.2111 27.8596 43.4531 27.6215C43.6952 27.3837 43.6985 26.9944 43.4606 26.7524L41.7196 24.9812C41.1409 24.3913 40.2309 24.26 39.5061 24.6624C39.2787 24.789 39.0855 24.9626 38.9335 25.1678C38.9162 25.1871 38.8997 25.2074 38.8846 25.2292L34.4491 31.6909L29.017 36.389C28.2556 37.0472 28.1448 38.205 28.7699 38.9701C29.1218 39.4011 29.6427 39.6483 30.1989 39.6483C30.6411 39.6483 31.0691 39.4892 31.4049 39.1995L37.0412 34.3236C37.1598 34.221 37.265 34.1033 37.3545 33.9734L38.5366 32.2516L38.5105 38.7855H34.8108C34.4714 38.7855 34.1962 39.0607 34.1962 39.4001V39.9533L27.5269 39.9368C26.5127 39.9368 25.6856 40.7621 25.6832 41.7766C25.6832 41.7799 25.6835 41.7829 25.6836 41.7861C25.6799 42.0925 25.7525 42.3966 25.9008 42.6744C26.1327 43.1088 26.5199 43.4269 26.9911 43.5701L27.8703 43.8373H24.4725C24.9691 43.3003 25.2733 42.5829 25.2733 41.7955C25.2733 40.1357 23.923 38.7853 22.2632 38.7853C20.6033 38.7853 19.2531 40.1358 19.2531 41.7956C19.2531 42.583 19.5574 43.3004 20.0539 43.8374H17.6631C16.9515 43.8374 16.2828 44.1144 15.7794 44.6178C15.2768 45.1214 15 45.7901 15 46.5006C15 47.6466 15.7278 48.626 16.7454 49.0007V50.515C16.7454 50.8544 17.0205 51.1296 17.36 51.1296H23.686C24.0254 51.1296 24.3006 50.8544 24.3006 50.515C24.3006 50.1756 24.0254 49.9004 23.686 49.9004H17.9746V49.1637H35.6793L36.195 49.9004H27.4004C27.061 49.9004 26.7858 50.1756 26.7858 50.515C26.7858 50.8544 27.061 51.1296 27.4004 51.1296H52.8135C53.1529 51.1296 53.4281 50.8544 53.4281 50.515V48.9935C53.7786 48.8617 54.1002 48.6559 54.3723 48.3832C54.8752 47.8802 55.1521 47.2117 55.1521 46.5007C55.1522 45.5388 54.6272 44.6581 53.8108 44.1895ZM42.2302 30.7626L44.1714 32.7384L43.0161 37.7719C42.9387 38.1217 42.9671 38.4705 43.0793 38.7855H42.1978L42.2302 30.7626ZM36.3415 33.2771C36.3111 33.3212 36.2767 33.3597 36.2367 33.3944L30.6012 38.2695C30.4577 38.3934 30.3032 38.4193 30.1989 38.4193C30.0132 38.4193 29.8394 38.3368 29.7218 38.1928C29.5137 37.938 29.558 37.5462 29.8208 37.3191L35.2971 32.5827C35.3023 32.5783 35.3074 32.5737 35.3123 32.5691C35.3545 32.5301 35.3907 32.4891 35.423 32.4439C35.4252 32.4408 35.4274 32.4377 35.4297 32.4345L38.5541 27.8828L38.5453 30.0672L36.3415 33.2771ZM34.196 41.1825V41.9059L31.7963 41.1766L34.196 41.1825ZM22.2631 40.0146C23.2452 40.0146 24.0441 40.8135 24.0441 41.7956C24.0441 42.7777 23.2452 43.5767 22.2631 43.5767C21.281 43.5767 20.482 42.7777 20.482 41.7956C20.482 40.8135 21.2809 40.0146 22.2631 40.0146ZM17.6631 47.9346C16.8725 47.9346 16.2291 47.2912 16.2291 46.5006C16.2291 46.1179 16.3783 45.7576 16.6489 45.4864C16.9196 45.2157 17.2799 45.0665 17.6631 45.0665H31.9145L33.0535 45.4128L34.8188 47.9346H17.6631ZM38.3678 49.7891C38.0901 49.9836 37.7061 49.9157 37.5118 49.6382L36.5116 48.2092C36.5091 48.2055 36.5064 48.2019 36.5039 48.1981L33.9389 44.5339C33.8601 44.4212 33.7457 44.3383 33.6142 44.2983L32.1953 43.8671C32.1908 43.8656 32.1862 43.8643 32.1817 43.863L27.3485 42.3941C27.1914 42.3464 27.0623 42.2404 26.985 42.0955C26.9078 41.9507 26.8915 41.7846 26.9392 41.6274C27.0198 41.3625 27.2641 41.1915 27.5276 41.1915C27.5866 41.1915 27.6467 41.2001 27.7061 41.2181L34.3779 43.2459C34.5089 43.2857 34.6242 43.3693 34.7027 43.4814L38.5191 48.9335C38.5558 48.9859 38.584 49.043 38.6027 49.1033C38.6823 49.3593 38.5879 49.635 38.3678 49.7891ZM52.199 49.9004H39.7546C39.8373 49.6666 39.8729 49.4163 39.8555 49.1637H52.1989V49.9004H52.199ZM53.5027 47.5144C53.2324 47.7853 52.8725 47.9345 52.4891 47.9345H39.32L38.7464 47.1151H43.4067C43.7461 47.1151 44.0213 46.8399 44.0213 46.5005C44.0213 46.1611 43.7461 45.8859 43.4067 45.8859H37.886L35.7092 42.7763C35.6273 42.6592 35.5311 42.5533 35.4251 42.4588V40.0147H39.1199C39.1208 40.0147 39.1217 40.0147 39.1225 40.0147H41.5782C41.579 40.0147 41.58 40.0147 41.5808 40.0147H49.5629C51.2274 40.0147 52.5817 41.3689 52.5817 43.0335V45.886H46.9579C46.6184 45.886 46.3433 46.1612 46.3433 46.5006C46.3433 46.84 46.6184 47.1152 46.9579 47.1152H53.1962C53.5356 47.1152 53.8108 46.84 53.8108 46.5006V45.9475C53.8832 46.1197 53.9231 46.307 53.9231 46.5006C53.9231 46.8834 53.774 47.2432 53.5027 47.5144Z" fill="#896B3B"/>
<path d="M40.309 18C38.6492 18 37.2988 19.3504 37.2988 21.0102C37.2988 22.67 38.6492 24.0203 40.309 24.0203C41.9687 24.0203 43.3191 22.67 43.3191 21.0102C43.3191 19.3504 41.9688 18 40.309 18ZM40.309 22.7912C39.3269 22.7912 38.5279 21.9922 38.5279 21.0102C38.5279 20.0281 39.3269 19.2291 40.309 19.2291C41.291 19.2291 42.09 20.0281 42.09 21.0102C42.09 21.9922 41.291 22.7912 40.309 22.7912Z" fill="#896B3B"/>
</svg>
