<svg width="70" height="70" viewBox="0 0 70 70" fill="none" xmlns="http://www.w3.org/2000/svg">
<circle cx="35" cy="35" r="31" stroke="#896B3B" stroke-width="2"/>
<path d="M30.4455 39.7076C30.4455 39.6239 30.377 39.5934 30.3237 39.5554C29.9965 39.3118 29.7073 39.0303 29.4714 38.703C29.342 38.5204 29.2659 38.5889 29.1746 38.7411C28.5962 39.7456 27.9113 40.6741 27.135 41.5264C27.0056 41.6634 27.0056 41.77 27.135 41.907C27.272 42.0439 27.3785 42.0287 27.5155 41.907C28.3527 41.1307 29.2811 40.4686 30.2705 39.8826C30.339 39.8446 30.4227 39.8141 30.4455 39.7228M32.6297 40.5523C32.2111 40.4229 31.8382 40.3316 31.4881 40.1946C31.2826 40.1185 31.1228 40.1261 30.9402 40.2251C30.0346 40.7426 29.1746 41.3057 28.3831 41.9907C27.6297 42.6452 27.7362 42.4549 28.3527 43.1246C28.5049 43.292 28.619 43.2768 28.7788 43.1246C29.5018 42.4549 30.2933 41.8917 31.1381 41.3895C31.6099 41.1079 32.0969 40.8415 32.6221 40.5447M28.5125 36.4504C28.4668 36.4732 28.444 36.4732 28.4288 36.496C28.3831 36.5721 28.3375 36.6558 28.2918 36.7396C27.6906 37.8659 27.0209 38.9542 26.1837 39.9359C25.6967 40.4991 25.7043 40.4914 26.2294 41.0242C26.4196 41.2144 26.5414 41.222 26.7317 41.0242C27.5536 40.1109 28.2461 39.114 28.8397 38.0409C28.893 37.9496 28.9463 37.8583 28.9006 37.7517C28.7332 37.3408 28.619 36.907 28.5125 36.4732M28.6495 44.7228C28.6266 44.5021 28.5658 44.2814 28.4059 44.1216C27.2416 42.9496 26.0772 41.7776 24.9052 40.6208C24.616 40.3392 24.1594 40.3316 23.9235 40.5523C23.6952 40.773 23.718 41.2068 23.9767 41.5341C24.0072 41.5721 24.0376 41.6025 24.0681 41.633C25.1868 42.7517 26.3055 43.8704 27.4242 44.9891C27.5916 45.1642 27.7971 45.2555 28.033 45.2783C28.3831 45.3088 28.6419 45.0652 28.6419 44.7228M19.7911 51.3666C19.9813 51.359 20.1031 51.2448 20.2172 51.1307C22.2111 49.1368 24.2127 47.1353 26.2142 45.1413C26.3816 44.9739 26.3968 44.8674 26.2218 44.6923C25.5749 44.0683 24.9432 43.429 24.3116 42.7822C24.1366 42.5995 24.03 42.6299 23.8702 42.7898C23.4745 43.1931 23.0559 43.5736 22.6525 43.9694C21.062 45.5066 19.4638 47.0363 17.8656 48.5736C17.6602 48.7715 17.5993 48.9693 17.7972 49.2053C18.3679 49.8674 18.9387 50.5371 19.5095 51.1992C19.5856 51.2905 19.6769 51.359 19.7834 51.3666M34.3192 39.9892C35.3313 40.012 36.3968 39.837 37.4546 39.5782C40.6205 38.7943 43.5277 37.4245 46.2598 35.6513C47.3328 34.9511 48.3678 34.1825 49.1897 33.1855C50.9401 31.0546 51.6327 28.5965 51.3206 25.8644C51.0162 23.1856 49.7833 21.0242 47.5992 19.4489C45.6662 18.0486 43.482 17.493 41.1 17.7061C38.4516 17.9421 36.2598 19.0684 34.5779 21.1308C32.2644 23.9694 30.7195 27.219 29.6769 30.7046C29.1365 32.5006 28.8778 34.3195 29.1213 36.1992C29.3572 38.0485 30.4531 39.3042 32.2568 39.7837C32.9113 39.9587 33.5734 39.9968 34.3192 39.9892ZM52.0512 27.044C51.9523 30.4991 50.5748 33.3073 47.7666 35.3697C44.4561 37.805 40.8032 39.5249 36.7697 40.3849C35.9934 40.5523 35.202 40.6665 34.4029 40.636C34.1137 40.6284 33.8625 40.6893 33.6038 40.8111C32.0285 41.5417 30.5292 42.4092 29.2279 43.5736C29.0833 43.703 28.9843 43.8095 29.0909 44.0379C29.3877 44.6695 29.2964 45.2555 28.8702 45.6208C28.444 45.9937 27.7591 46.0318 27.234 45.6436C26.9143 45.4077 26.7545 45.4838 26.5034 45.7273C24.5932 47.6528 22.6754 49.5706 20.7576 51.4884C20.5293 51.7167 20.2933 51.945 19.9509 51.9906C19.578 52.0363 19.2659 51.9145 19.0224 51.633C18.4592 50.9785 17.8885 50.324 17.3329 49.6619C16.8687 49.0987 16.8839 48.6117 17.4166 48.1018C19.3877 46.2068 21.3588 44.3118 23.3375 42.4245C23.5506 42.2266 23.6038 42.0972 23.3983 41.8385C23.0787 41.4503 23.0102 40.9709 23.1853 40.4991C23.4364 39.8141 24.205 39.5554 24.9585 39.9054C25.1639 40.0044 25.2857 39.9739 25.4303 39.8141C26.6784 38.4214 27.584 36.8233 28.3298 35.1262C28.3679 35.0424 28.3755 34.9435 28.3755 34.8598C28.3527 32.63 28.9615 30.5295 29.7378 28.4747C30.7271 25.8492 32.0208 23.3834 33.7256 21.146C35.5596 18.7564 37.9341 17.3637 40.8869 17.0593C46.275 16.4961 51.1456 19.9968 51.9371 25.4458C52.0132 25.9709 52.0741 26.4961 52.0664 27.0288" fill="#896B3B"/>
<path d="M49.7142 46.4043C49.6686 44.555 48.253 43.1242 46.4189 43.1395C44.524 43.1547 43.1693 44.6007 43.1465 46.4271C43.1237 48.2232 44.6762 49.7224 46.4418 49.6996C48.2454 49.6767 49.7294 48.1851 49.7142 46.4043ZM46.4418 42.5154C48.6259 42.5154 50.3383 44.2354 50.3307 46.4347C50.3307 48.6113 48.6031 50.316 46.3961 50.316C44.2196 50.316 42.5225 48.5885 42.5225 46.3739C42.5225 44.2125 44.25 42.5078 46.4342 42.5078" fill="#896B3B"/>
<path d="M49.426 25.46C49.426 25.46 49.4945 25.4068 49.525 25.3839C49.5174 25.0719 49.3956 24.7827 49.3119 24.4859C49.289 24.4022 49.2814 24.2576 49.1825 24.2652C49.0075 24.2652 48.9314 24.4479 48.8172 24.5544C48.7335 24.6381 48.7639 24.7218 48.8324 24.7979C49.0303 25.0186 49.2282 25.2393 49.426 25.46ZM43.5661 19.4403C43.5661 19.4403 43.528 19.5011 43.5128 19.524C43.6802 19.6762 43.8553 19.8284 44.0151 19.9882C44.3652 20.3307 44.4489 20.3231 44.7533 19.9349C44.8522 19.8056 44.8142 19.7599 44.6848 19.7218C44.3119 19.6001 43.9466 19.4935 43.5585 19.4403M40.4611 36.7385C40.4611 36.7385 40.4991 36.7918 40.522 36.8222C41.0014 36.6168 41.4885 36.4113 41.9679 36.1982C42.0516 36.1601 42.2267 36.1297 42.1734 36.0232C42.0973 35.871 41.9375 35.7492 41.8081 35.6274C41.7168 35.5437 41.6407 35.6046 41.5646 35.6731C41.1993 36.0308 40.8264 36.3885 40.4611 36.7461M32.0593 28.6335C32.0593 28.6335 32.1049 28.6716 32.1354 28.6944C32.4702 28.352 32.8051 28.0095 33.1476 27.667C33.3911 27.4235 33.386 27.1774 33.1323 26.9288C33.1323 26.9288 33.1019 26.8984 33.0867 26.8832C32.9649 26.7386 32.8812 26.731 32.7975 26.9288C32.5616 27.4996 32.3104 28.0628 32.0669 28.6335M39.487 19.6838C39.7685 19.9425 39.9816 20.1328 40.1947 20.3231C40.286 20.4068 40.3697 20.4296 40.4687 20.3383C40.7807 20.0339 41.0851 19.7295 41.3895 19.4327C40.7427 19.3337 40.1795 19.4859 39.487 19.6838ZM49.7 27.6214C49.7 27.6214 49.6467 27.5757 49.6163 27.5605C49.4565 27.7431 49.3043 27.9334 49.1368 28.1008C48.5052 28.7401 48.5052 28.7325 49.1901 29.3337C49.3423 29.4707 49.4108 29.4707 49.4641 29.2576C49.5935 28.7173 49.6848 28.1769 49.7 27.6214ZM48.8933 23.4966C48.8781 23.4509 48.8781 23.4281 48.8705 23.4052C48.6193 22.8497 48.3073 22.3246 47.9192 21.8451C47.8126 21.7158 47.7289 21.7614 47.63 21.8603C47.4093 22.081 47.1962 22.3094 46.9679 22.5148C46.7853 22.6823 46.8081 22.8116 46.9831 22.9638C47.3028 23.2683 47.5996 23.5879 47.9192 23.8847C48.0257 23.9912 48.1247 24.2195 48.2921 24.113C48.5432 23.9608 48.7563 23.7401 48.8933 23.489M46.321 22.1952C46.3591 22.1648 46.42 22.1343 46.4656 22.081C46.6939 21.8527 46.9146 21.6168 47.1582 21.3961C47.3256 21.2439 47.2951 21.1374 47.1277 21.0156C46.8309 20.7949 46.5341 20.5742 46.2145 20.3916C45.4002 19.9425 45.6513 19.9806 45.0273 20.559C44.8598 20.7112 44.8598 20.833 45.0273 20.9852C45.3926 21.3352 45.7502 21.7005 46.1079 22.0582C46.1612 22.1115 46.2145 22.18 46.3286 22.18M42.9116 35.6959C42.9649 35.6807 43.0029 35.6731 43.0334 35.6579C43.6955 35.3382 44.3347 34.9729 44.9664 34.5848C45.1414 34.4783 45.0577 34.3869 44.9588 34.288C44.7 34.0293 44.4261 33.7781 44.1825 33.5041C43.9999 33.3063 43.8781 33.3367 43.7031 33.5194C43.3149 33.9303 42.904 34.3184 42.5159 34.7218C42.4169 34.8283 42.181 34.9273 42.2952 35.0947C42.455 35.3382 42.6605 35.5589 42.9192 35.6959M36.6255 37.9562C37.4093 37.804 38.1628 37.6289 38.8857 37.3626C39.0836 37.2865 38.9771 37.1647 38.8857 37.0734C38.528 36.7157 38.1628 36.358 37.8127 35.9927C37.6453 35.8177 37.5311 35.8101 37.3637 35.9927C37.006 36.3732 36.6255 36.7233 36.2678 37.0962C36.1688 37.1952 35.9634 37.2865 36.0699 37.4539C36.2069 37.667 36.3743 37.8801 36.6331 37.9638M35.6818 25.0339C35.6437 24.9882 35.5981 24.9197 35.5448 24.8588C35.2784 24.5848 34.9969 24.3261 34.7381 24.0445C34.5707 23.8619 34.4641 23.8466 34.3348 24.0826C34.0988 24.5164 33.8249 24.9349 33.5966 25.3763C33.1552 26.2135 33.1323 25.9243 33.7944 26.6168C33.9314 26.769 34.0456 26.7766 34.1978 26.6168C34.6468 26.1526 35.111 25.7036 35.5676 25.2393C35.6209 25.1861 35.6894 25.1328 35.6894 25.0186M31.0471 32.3093C31.0623 32.5681 31.3135 32.6746 31.4581 32.8573C31.5798 33.0095 31.694 32.9943 31.831 32.8573C32.2419 32.4387 32.6529 32.0201 33.0791 31.6092C33.216 31.4798 33.2237 31.3733 33.0791 31.2363C32.7062 30.8786 32.3409 30.5133 31.9832 30.1404C31.7929 29.9425 31.6483 29.9958 31.5722 30.2165C31.3363 30.8938 31.1917 31.5863 31.0471 32.3093ZM33.9923 38.1388C34.4185 38.2378 34.5935 37.7964 34.8827 37.5604C35.0349 37.4387 35.0121 37.3169 34.8827 37.1875C34.5098 36.8222 34.1445 36.4569 33.7792 36.084C33.627 35.9242 33.5128 35.9623 33.3759 36.1069C32.9877 36.5026 32.5996 36.8983 32.1963 37.2789C31.9908 37.4767 32.0593 37.5757 32.2648 37.6822C32.7823 37.9562 33.3378 38.0932 33.9847 38.1312M30.8492 34.9121C30.9025 35.5589 31.0167 36.1906 31.3439 36.769C31.4504 36.9668 31.5494 37.0201 31.732 36.8375C32.1202 36.4265 32.5235 36.0308 32.9345 35.635C33.0867 35.4904 33.0791 35.3763 32.9345 35.2317C32.6681 34.9805 32.4094 34.7142 32.1506 34.4478C31.8157 34.113 31.4809 34.118 31.146 34.463C31.0243 34.5924 30.8416 34.6837 30.8645 34.9044M38.7868 19.9349C38.7868 19.9349 38.7107 19.9578 38.665 19.9806C38.0638 20.2241 37.5159 20.5666 36.9984 20.9471C36.869 21.0384 36.8462 21.1298 36.9679 21.2515C37.3485 21.6244 37.7214 21.9973 38.0943 22.3779C38.216 22.5072 38.3226 22.4996 38.4443 22.3779C38.8629 21.9517 39.2891 21.5255 39.7153 21.1069C39.837 20.9852 39.8446 20.8786 39.7153 20.7569C39.4717 20.5285 39.2434 20.285 39.0075 20.0491C38.9466 19.9958 38.8933 19.9349 38.7944 19.9349M47.9344 32.1647C48.0486 32.1419 48.0866 32.0658 48.1323 32.0049C48.4671 31.594 48.7259 31.1297 48.977 30.6579C49.1597 30.3306 49.1292 30.0871 48.8324 29.8512C48.6498 29.7142 48.4976 29.5392 48.3378 29.3641C48.1856 29.1891 48.0638 29.1663 47.8887 29.3489C47.5006 29.7599 47.0973 30.1556 46.6939 30.5513C46.5493 30.6883 46.5265 30.8025 46.6863 30.9547C47.0592 31.3124 47.4245 31.6853 47.7898 32.0506C47.8355 32.0962 47.8964 32.1267 47.942 32.1571M45.7122 34.0901C45.7655 34.0673 45.8111 34.0521 45.8492 34.0293C46.3819 33.664 46.8994 33.2758 47.3712 32.8344C47.5006 32.7127 47.4473 32.6137 47.3408 32.5148C46.9755 32.1495 46.6026 31.7842 46.2449 31.4113C46.1003 31.2591 45.9938 31.2591 45.8416 31.4113C45.4382 31.8223 45.0349 32.2332 44.6163 32.6366C44.4641 32.7812 44.4717 32.8953 44.6163 33.0399C44.9359 33.3443 45.2404 33.6563 45.5524 33.9684C45.598 34.014 45.6589 34.0521 45.7122 34.0977M37.7518 23.0399C37.7518 22.941 37.7061 22.8877 37.6605 22.8421C37.28 22.4616 36.8918 22.081 36.5189 21.6929C36.3667 21.5407 36.2678 21.6092 36.146 21.731C35.7351 22.1495 35.3774 22.6138 35.0273 23.0856C34.9208 23.2302 34.9208 23.3444 35.0577 23.4737C35.3774 23.7858 35.697 24.0978 36.009 24.425C36.1689 24.5925 36.283 24.562 36.4352 24.4098C36.8233 24.0065 37.2267 23.6107 37.63 23.215C37.6833 23.1617 37.729 23.0932 37.767 23.0476M45.5219 30.8025C45.5219 30.7035 45.4763 30.6503 45.423 30.6046C45.0425 30.2241 44.6544 29.8436 44.2738 29.4555C44.1445 29.3261 44.0455 29.3489 43.9238 29.4707C43.5128 29.8892 43.1019 30.3078 42.6757 30.7112C42.5235 30.8634 42.5387 30.9699 42.6833 31.1145C43.0486 31.4646 43.4063 31.8223 43.7563 32.1876C43.9162 32.355 44.0303 32.3245 44.1825 32.1723C44.5783 31.769 44.9816 31.3733 45.3773 30.9699C45.4306 30.9166 45.4763 30.8481 45.5143 30.8025M45.6513 26.7233C45.6513 26.7233 45.6057 26.6396 45.5676 26.6016C45.1795 26.2058 44.7837 25.8177 44.3956 25.4296C44.2586 25.2926 44.1597 25.3535 44.0455 25.46C43.6422 25.871 43.2388 26.2819 42.8203 26.6777C42.6528 26.8375 42.6681 26.9517 42.8203 27.1039C43.178 27.4463 43.528 27.7964 43.8705 28.1541C44.0227 28.3063 44.1292 28.3367 44.2967 28.1693C44.6924 27.7583 45.111 27.355 45.5143 26.944C45.5676 26.8908 45.6361 26.8375 45.6437 26.7233M35.1186 33.3748C35.1186 33.3748 35.0882 33.3063 35.0577 33.2758C34.6544 32.8649 34.2434 32.4615 33.8401 32.0506C33.7107 31.9212 33.6118 32.0125 33.5205 32.1038C33.1095 32.5148 32.6909 32.9334 32.2724 33.3443C32.1354 33.4813 32.143 33.5879 32.2724 33.7172C32.6453 34.0749 33.0106 34.4478 33.3683 34.8207C33.5205 34.9729 33.627 34.9577 33.7716 34.8131C34.1749 34.4022 34.5859 33.9988 34.9893 33.5879C35.0425 33.5346 35.111 33.4813 35.1186 33.3672M49.6772 26.6168C49.6391 26.5559 49.6087 26.4874 49.563 26.4418C49.1825 26.0536 48.7944 25.6807 48.4215 25.2926C48.2921 25.1632 48.1932 25.1784 48.0714 25.2926C47.6604 25.7112 47.2495 26.1297 46.8233 26.5407C46.6711 26.6853 46.6787 26.7994 46.8233 26.944C47.1886 27.2941 47.5463 27.6518 47.8964 28.0171C48.0562 28.1845 48.1703 28.1693 48.3225 28.0095C48.7107 27.6061 49.1216 27.2104 49.5174 26.8071C49.5706 26.7538 49.6163 26.6853 49.6772 26.6092M43.5661 28.8466C43.5661 28.7477 43.5128 28.6944 43.4672 28.6488C43.0866 28.2682 42.6985 27.8877 42.318 27.4996C42.1658 27.3474 42.0592 27.4159 41.9451 27.5377C41.5493 27.941 41.1536 28.3367 40.7503 28.7325C40.5981 28.8847 40.5676 28.9988 40.735 29.1586C41.1003 29.5087 41.458 29.8664 41.8081 30.2317C41.9527 30.3763 42.0592 30.3915 42.2114 30.2393C42.6224 29.8207 43.041 29.4098 43.4519 28.9912C43.4976 28.9456 43.5356 28.8847 43.5661 28.8466ZM37.0593 35.2926C37.0288 35.2469 36.9908 35.1936 36.9451 35.1404C36.5798 34.7751 36.2069 34.4098 35.8492 34.0369C35.7046 33.8847 35.5981 33.8847 35.4459 34.0369C35.0425 34.4478 34.6392 34.8588 34.2282 35.2545C34.0836 35.3991 34.0684 35.5057 34.2282 35.6579C34.5935 36.0079 34.9512 36.3656 35.3013 36.7309C35.4535 36.8907 35.5676 36.8907 35.7275 36.7309C36.1156 36.3276 36.5189 35.9318 36.9223 35.5285C36.9832 35.4676 37.0669 35.4067 37.0669 35.285M39.7 24.9578C39.7 24.8436 39.6315 24.7903 39.5707 24.7371C39.213 24.3794 38.8477 24.0293 38.4976 23.6564C38.3454 23.4966 38.2312 23.489 38.0714 23.6564C37.6833 24.0597 37.28 24.4631 36.8766 24.8512C36.694 25.0262 36.732 25.148 36.8918 25.3002C37.2419 25.6351 37.5844 25.9775 37.9192 26.3276C38.0867 26.5026 38.2008 26.5103 38.3682 26.3276C38.7564 25.9167 39.1673 25.5285 39.5631 25.1252C39.6163 25.0719 39.662 25.0034 39.7 24.9578ZM43.7107 24.8284C43.7107 24.7294 43.665 24.6762 43.6194 24.6305C43.2388 24.25 42.8507 23.8695 42.4702 23.4813C42.3408 23.352 42.2419 23.3748 42.1201 23.489C41.7092 23.9075 41.2982 24.3261 40.872 24.7294C40.7198 24.8816 40.735 24.9882 40.872 25.1328C41.2373 25.4829 41.595 25.8405 41.9451 26.2058C42.1049 26.3733 42.2191 26.3504 42.3713 26.1906C42.7594 25.7873 43.1703 25.3915 43.5661 24.9882C43.6194 24.9349 43.665 24.8664 43.7031 24.8208M47.7213 24.6153C47.6833 24.562 47.6376 24.5011 47.5843 24.4402C47.2267 24.0826 46.8614 23.7249 46.5113 23.3672C46.3667 23.215 46.2601 23.2074 46.1079 23.3672C45.7046 23.7782 45.3012 24.1891 44.8903 24.5848C44.7152 24.7523 44.7533 24.8664 44.9055 25.011C45.2632 25.3535 45.6133 25.7036 45.9557 26.0612C46.1079 26.2211 46.2221 26.2287 46.3819 26.0612C46.77 25.6503 47.181 25.2622 47.5767 24.8588C47.6376 24.7979 47.7213 24.7371 47.7213 24.6153ZM42.2571 22.317C42.3637 22.317 42.4093 22.2637 42.455 22.218C42.8812 21.7995 43.2997 21.3657 43.7259 20.9471C43.8705 20.8101 43.8477 20.7036 43.7183 20.5742C43.3454 20.2165 42.9801 19.8512 42.6224 19.4783C42.4702 19.3185 42.3637 19.3489 42.2191 19.4935C41.8157 19.9045 41.4124 20.3155 41.0014 20.7112C40.8492 20.8634 40.8644 20.9699 41.009 21.1145C41.3743 21.4646 41.7244 21.8299 42.0897 22.1876C42.143 22.2409 42.2114 22.2865 42.2571 22.3246M41.7624 22.8877C41.7624 22.7888 41.7092 22.7355 41.6635 22.6899C41.283 22.3094 40.8949 21.9288 40.5143 21.5407C40.3621 21.3885 40.2556 21.4646 40.1414 21.5788C39.7457 21.9821 39.35 22.3779 38.9466 22.7736C38.7944 22.9258 38.764 23.0399 38.9314 23.1998C39.2967 23.5498 39.6544 23.9075 40.0045 24.2728C40.149 24.4174 40.2556 24.4326 40.4078 24.2804C40.8188 23.8619 41.2373 23.4509 41.6483 23.0323C41.6939 22.9867 41.732 22.9258 41.7548 22.8877M45.7731 22.6975C45.7426 22.6594 45.7122 22.5986 45.6665 22.5529C45.2936 22.18 44.9131 21.8071 44.5478 21.4266C44.4108 21.2896 44.3043 21.2896 44.1749 21.4266C43.764 21.8451 43.3454 22.2637 42.9268 22.6747C42.7898 22.804 42.7822 22.9182 42.9268 23.0476C43.2997 23.4052 43.665 23.7782 44.0227 24.1434C44.1673 24.2957 44.2815 24.2957 44.4261 24.1434C44.8294 23.7325 45.2404 23.3291 45.6437 22.9182C45.697 22.8649 45.7655 22.8116 45.7807 22.6975M46.1384 27.2637C46.1384 27.2637 46.0547 27.3093 46.0166 27.3474C45.5752 27.7888 45.1338 28.2226 44.7 28.664C44.5554 28.8086 44.6468 28.9075 44.7533 29.0141C45.111 29.3717 45.4763 29.7218 45.8264 30.0947C45.9862 30.2621 46.1003 30.2469 46.2525 30.0871C46.6407 29.6838 47.044 29.2804 47.4473 28.8923C47.6148 28.7325 47.6072 28.6183 47.4473 28.4661C47.0821 28.116 46.732 27.7507 46.3667 27.3931C46.3134 27.3398 46.2601 27.2713 46.146 27.2713M41.6255 26.9212C41.6255 26.8223 41.5798 26.769 41.5341 26.7233C41.1536 26.3428 40.7655 25.9623 40.385 25.5742C40.2556 25.4448 40.1567 25.46 40.0349 25.5818C39.6239 26.0004 39.213 26.4189 38.7868 26.8223C38.6346 26.9745 38.6498 27.081 38.7868 27.2256C39.1521 27.5757 39.5098 27.9334 39.8599 28.2987C40.0197 28.4661 40.1338 28.4433 40.286 28.2835C40.6818 27.8801 41.0851 27.4844 41.4809 27.081C41.5341 27.0278 41.5798 26.9593 41.6178 26.9136M37.8888 31.7005C37.7898 31.7005 37.7366 31.7462 37.6909 31.7918C37.2191 32.2637 36.7472 32.7355 36.2678 33.2073C36.1232 33.3519 36.1612 33.4585 36.2906 33.5802C36.6559 33.9379 37.0136 34.288 37.3637 34.6609C37.5235 34.8283 37.6376 34.8131 37.7898 34.6533C38.2312 34.1967 38.6803 33.7477 39.1369 33.3063C39.2891 33.1617 39.2891 33.0475 39.1369 32.9029C38.764 32.5452 38.3987 32.1723 38.0334 31.807C37.9877 31.7614 37.9268 31.7233 37.8888 31.6929M43.4215 32.7964C43.4215 32.7964 43.3758 32.7127 43.3302 32.6746C42.942 32.2789 42.5463 31.8908 42.1582 31.5026C41.9984 31.3428 41.8918 31.457 41.7853 31.5711C41.3439 32.0125 40.9101 32.4539 40.4611 32.8877C40.3089 33.0399 40.2708 33.1541 40.4459 33.3139C40.8111 33.664 41.1688 34.0216 41.5189 34.3869C41.6863 34.562 41.8005 34.5163 41.9451 34.3717C42.3789 33.9227 42.8203 33.4889 43.2617 33.0475C43.3226 32.9866 43.4063 32.9258 43.4139 32.804M41.4732 30.871C41.4732 30.871 41.4276 30.7873 41.3895 30.7492C41.0014 30.3535 40.6057 29.9653 40.2175 29.5772C40.0806 29.4402 39.9816 29.5011 39.8675 29.6077C39.4108 30.0643 38.9618 30.5285 38.4976 30.9775C38.3454 31.1221 38.3454 31.2363 38.4976 31.3809C38.8629 31.7309 39.2206 32.0886 39.5707 32.4539C39.7077 32.5985 39.8218 32.629 39.974 32.4691C40.423 32.0049 40.8873 31.5559 41.3363 31.0993C41.3895 31.046 41.458 30.9927 41.4656 30.8786M35.3698 29.2195C35.3698 29.2195 35.3393 29.151 35.3089 29.1206C34.9055 28.7096 34.4946 28.3063 34.0912 27.8953C33.9619 27.766 33.8629 27.8573 33.7716 27.9486C33.315 28.4052 32.8584 28.8618 32.4017 29.3185C32.2495 29.4631 32.2495 29.5772 32.4017 29.7218C32.767 30.0719 33.1247 30.4296 33.4748 30.7949C33.6346 30.9623 33.7488 30.9471 33.901 30.7873C34.3424 30.3306 34.7914 29.8892 35.2404 29.4402C35.2937 29.387 35.3622 29.3337 35.3698 29.2195ZM39.5326 36.7461C39.5707 36.7157 39.6315 36.6776 39.6848 36.632C40.149 36.1678 40.6133 35.7035 41.0775 35.2393C41.2221 35.1023 41.2069 34.9958 41.0699 34.8664C40.697 34.5011 40.3317 34.1358 39.9664 33.7629C39.8142 33.6031 39.7077 33.6411 39.5631 33.7781C39.1217 34.2347 38.6726 34.6837 38.216 35.1251C38.0486 35.285 38.0638 35.3991 38.2236 35.5513C38.5813 35.8938 38.9238 36.2515 39.2815 36.6015C39.3424 36.6624 39.4032 36.7461 39.525 36.7461M37.5844 27.0049C37.5844 27.0049 37.5539 26.9364 37.5235 26.906C37.1201 26.495 36.7092 26.0917 36.3058 25.6807C36.1765 25.5514 36.0775 25.6351 35.9862 25.734C35.5296 26.1906 35.0806 26.6472 34.6163 27.1039C34.4717 27.2485 34.4641 27.355 34.6163 27.5072C34.9816 27.8573 35.3393 28.215 35.6894 28.5803C35.8492 28.7477 35.9634 28.7325 36.1156 28.5803C36.557 28.1236 37.0136 27.6822 37.455 27.2332C37.5083 27.18 37.5768 27.1267 37.5844 27.0201M35.9025 29.7599C35.8416 29.8055 35.7731 29.836 35.7275 29.8816C35.2556 30.3535 34.7838 30.8253 34.3043 31.2972C34.1521 31.4494 34.213 31.5483 34.3348 31.6701C34.7001 32.0277 35.0577 32.3778 35.4078 32.7431C35.5448 32.8877 35.659 32.9029 35.8112 32.7507C36.2602 32.2865 36.7168 31.8299 37.181 31.3809C37.3332 31.2287 37.318 31.1221 37.181 30.9775C36.8157 30.6274 36.4657 30.2621 36.1004 29.9045C36.0471 29.8512 35.9786 29.8055 35.9025 29.7523M38.1247 27.5377C38.0714 27.5681 38.0182 27.5909 37.9801 27.629C37.4854 28.116 36.9984 28.6031 36.5113 29.0902C36.3895 29.2119 36.4276 29.3109 36.5341 29.4098C36.9071 29.7827 37.2876 30.1556 37.6605 30.5361C37.7975 30.6731 37.904 30.6655 38.0334 30.5361C38.4824 30.0795 38.939 29.6153 39.4032 29.1663C39.5478 29.0217 39.5631 28.9151 39.4032 28.7629C39.0303 28.4052 38.665 28.0323 38.2997 27.667C38.2541 27.6214 38.1932 27.5833 38.1247 27.53M50.3393 26.7462C50.4078 29.5011 49.5326 31.8603 47.3712 33.664C46.1384 34.6914 44.7761 35.5133 43.353 36.2286C41.1917 37.3245 38.9542 38.1921 36.557 38.6259C35.385 38.839 34.2054 38.9303 33.0182 38.6792C31.4276 38.3367 30.5448 37.3245 30.2632 35.7644C29.9817 34.1967 30.2176 32.6594 30.6057 31.1449C31.4657 27.8116 32.8736 24.7371 34.9969 22.0049C36.6179 19.9197 38.7944 18.8391 41.4276 18.6716C43.8401 18.5194 45.9938 19.1815 47.8203 20.7873C48.6954 21.5559 49.2434 22.5681 49.6696 23.6336C50.0653 24.6229 50.3088 25.6579 50.3317 26.731" fill="#896B3B"/>
</svg>
