<svg width="70" height="70" viewBox="0 0 70 70" fill="none" xmlns="http://www.w3.org/2000/svg">
<circle cx="35" cy="35" r="31" stroke="#896B3B" stroke-width="2"/>
<path d="M36.7376 32.4823H36.421C32.1734 32.4823 27.9184 32.4823 23.6708 32.4823C23.5309 32.4823 23.391 32.4971 23.2512 32.5265C22.78 32.6443 22.5077 33.0344 22.5445 33.5203C22.5886 34.043 22.9788 34.3816 23.553 34.3816C27.8742 34.3816 32.1955 34.3816 36.5167 34.3816C36.583 34.3816 36.6493 34.3669 36.7376 34.3669V32.4823ZM24.3922 45.2988C24.672 45.4755 24.9149 45.6007 25.1284 45.7626C25.4596 46.0276 25.7615 46.3221 26.0854 46.5945C27.2117 47.5441 28.8313 47.5588 29.9723 46.6166C30.3551 46.3 30.7158 45.9687 31.0839 45.6375C31.4225 45.3356 31.6581 45.3356 32.0115 45.6375C32.409 45.9835 32.7918 46.3515 33.204 46.6755C34.1463 47.419 35.4788 47.5147 36.5167 46.9331C36.6934 46.8374 36.767 46.727 36.7597 46.5209C36.7523 45.5786 36.7597 44.6437 36.7597 43.7014C36.7597 43.6278 36.7376 43.5468 36.7302 43.4732H24.3922V45.2841V45.2988ZM24.3701 39.4169C24.7971 39.4169 25.1652 39.4022 25.5406 39.4169C25.9823 39.439 26.2253 39.7997 26.0633 40.1605C25.9455 40.4181 25.7173 40.4917 25.4523 40.4917C24.7824 40.4917 24.1125 40.4917 23.4426 40.4917C22.942 40.4991 22.5739 40.8598 22.5371 41.3457C22.4856 41.9861 22.9273 42.391 23.6929 42.391C27.9184 42.391 32.1513 42.391 36.3769 42.391H36.7229V40.4844H28.0436C27.9405 40.4844 27.8301 40.4844 27.727 40.4844C27.381 40.4549 27.1455 40.2267 27.1528 39.9322C27.1528 39.6378 27.3884 39.4243 27.7417 39.4022C27.8448 39.4022 27.9552 39.4022 28.0583 39.4022H36.7229V35.4785H24.3922C24.3849 35.5963 24.3701 35.692 24.3701 35.7803C24.3701 36.9655 24.3701 38.1507 24.3701 39.3949M23.288 31.3707V30.9732C23.288 28.9193 23.2806 26.8581 23.288 24.8042C23.3027 22.4706 25.1946 20.5639 27.4767 20.5418C29.8545 20.5198 31.7685 22.3822 31.8053 24.76C31.8201 25.5551 31.798 26.3575 31.8127 27.1599C31.8274 27.874 32.3501 28.404 33.0274 28.4114C33.6678 28.4261 34.2567 27.9108 34.2641 27.2556C34.2715 26.1661 34.3083 25.0619 34.1978 23.9797C33.793 19.9824 29.722 17.2512 25.8277 18.3039C23.0377 19.0548 20.8219 21.6534 20.8366 24.9735C20.8734 32.2688 20.8439 39.5642 20.8439 46.8595V47.2644C21.8083 47.3306 22.5665 46.992 23.2217 46.3589C23.2585 46.3221 23.2806 46.2558 23.2806 46.2043C23.2806 45.2915 23.2806 44.3786 23.2806 43.4732C21.9923 43.002 21.4329 42.4205 21.4623 41.4561C21.477 41.0659 21.6169 40.6463 21.8083 40.3003C22.1101 39.7408 22.6622 39.4906 23.2585 39.3875V35.4343C22.1837 35.2282 21.4991 34.4847 21.4476 33.4982C21.3961 32.4897 22.0071 31.7756 23.2806 31.3707M53.0877 46.1307C52.3221 46.8521 51.6153 47.6619 50.6068 48.0594C49.1345 48.641 47.7505 48.4275 46.4991 47.4705C46.1751 47.2202 45.8733 46.9405 45.5347 46.646C44.563 47.6472 43.4808 48.3907 42.0306 48.3833C40.6024 48.376 39.5203 47.6398 38.5485 46.6239C37.5694 47.6472 36.4799 48.3833 35.0371 48.3833C33.6089 48.3833 32.5194 47.6545 31.5698 46.646C31.3195 46.8595 31.0986 47.0509 30.8778 47.2423C29.1772 48.7588 26.932 48.7661 25.2241 47.2644C25.0032 47.073 24.7824 46.8742 24.5395 46.6607C24.3554 46.8153 24.1714 46.9626 24.0094 47.1245C22.2647 48.8324 19.7471 48.7514 18.1202 47.176C17.833 46.8963 17.5165 46.6534 17.2294 46.381C16.9644 46.1381 16.9276 45.8362 17.1263 45.6007C17.3325 45.3577 17.6564 45.343 17.9361 45.5786C18.341 45.9172 18.7238 46.2779 19.1287 46.6166C19.3054 46.7638 19.5041 46.8742 19.7397 47.0362V34.1313C19.1655 34.1313 18.5913 34.1313 18.0245 34.1313C17.8625 34.1313 17.6932 34.1387 17.5312 34.1313C17.1926 34.0945 16.9938 33.8884 17.0012 33.5866C17.0012 33.2921 17.2073 33.0713 17.5459 33.0565C18.1349 33.0418 18.7238 33.0565 19.3054 33.0492H19.7618V32.6001C19.7618 30.053 19.725 27.4985 19.7691 24.9514C19.8207 21.5798 21.374 19.099 24.4437 17.6929C29.1184 15.5581 34.6248 18.6646 35.2432 23.7736C35.3904 25.003 35.3536 26.2618 35.3021 27.5059C35.2579 28.6322 34.1242 29.5377 32.9611 29.4935C31.7832 29.4567 30.7821 28.4703 30.7526 27.2998C30.7305 26.4753 30.7526 25.6508 30.7526 24.8336C30.7379 23.1184 29.5159 21.808 27.7638 21.6314C26.2326 21.4768 24.7456 22.6178 24.429 24.2079C24.3849 24.4214 24.3775 24.6496 24.3775 24.8778C24.3775 26.9685 24.3775 29.0592 24.3775 31.1499C24.3775 31.2161 24.3922 31.2898 24.3996 31.3781H36.7597V30.9511C36.7597 28.934 36.7597 26.9096 36.7597 24.8852C36.7744 21.1234 39.2479 18.0389 42.914 17.185C47.0438 16.2353 51.3724 19.0474 52.1748 23.2141C52.4472 24.6496 52.3662 26.0998 52.2926 27.5353C52.2337 28.6617 51.0927 29.523 49.9443 29.4714C48.7959 29.4199 47.8094 28.4703 47.7579 27.3366C47.7358 26.8581 47.7432 26.3722 47.7579 25.8937C47.7579 25.5477 47.9861 25.3269 48.2953 25.3269C48.6045 25.3269 48.8032 25.5477 48.8106 25.9158C48.8179 26.3133 48.8106 26.7108 48.8106 27.1157C48.8253 27.874 49.3627 28.4261 50.0621 28.4114C50.7688 28.3966 51.2767 27.8519 51.2694 27.0863C51.262 26.0409 51.2914 24.9882 51.1957 23.9503C50.9381 21.1602 48.5971 18.6794 45.8291 18.2082C42.1189 17.5678 38.762 19.813 37.9817 23.4718C37.8786 23.9503 37.8566 24.4508 37.8492 24.9441C37.8418 31.7683 37.8492 38.5998 37.8492 45.424V45.7553C37.9081 45.7479 37.9449 45.7553 37.967 45.7332C38.416 45.2694 38.7326 45.3136 39.189 45.77C39.5129 46.0865 39.8736 46.3736 40.2859 46.7343V46.2485C40.2859 39.1372 40.2859 32.0333 40.2859 24.922C40.2859 22.8239 41.5889 21.1602 43.5986 20.6596C45.6966 20.137 47.9714 21.4252 48.6045 23.5086C48.7149 23.8619 48.5897 24.1711 48.2953 24.2594C47.9861 24.3551 47.7284 24.2079 47.5959 23.8398C47.1174 22.5368 46.1972 21.7859 44.8206 21.624C43.1569 21.4252 41.449 22.8092 41.3975 24.4876C41.3386 26.2103 41.3754 27.9402 41.368 29.6702C41.368 30.7744 41.368 31.8787 41.368 33.0344H41.8318C45.3212 33.0344 48.8106 33.0344 52.3 33.0344C52.6239 33.0344 52.8963 33.0933 53.095 33.3657V33.7927C52.8963 34.0577 52.6239 34.1313 52.3 34.1313C48.8106 34.124 45.3286 34.1313 41.8392 34.1313H41.3607V36.2515C41.3607 39.785 41.3607 43.3186 41.3607 46.8521C41.3607 47.1392 41.4196 47.2644 41.7361 47.2865C42.6269 47.3527 43.4072 47.1172 44.0771 46.5282C44.4304 46.219 44.7764 45.9025 45.1372 45.5933C45.4316 45.3356 45.6819 45.3356 45.9764 45.5859C46.3224 45.8878 46.661 46.1896 47.007 46.4914C48.2069 47.5441 49.8191 47.5736 51.0559 46.5503C51.3871 46.2706 51.711 45.9761 52.035 45.689C52.4767 45.2988 52.6901 45.2988 53.1024 45.7037V46.1233L53.0877 46.1307Z" fill="#896B3B"/>
<path d="M53.0952 50.7316C52.3958 51.4236 51.7259 52.1671 50.8131 52.5793C49.142 53.3302 47.6182 53.0431 46.2416 51.8579C46.0354 51.6812 45.8367 51.5045 45.6306 51.3205C45.6158 51.3058 45.5864 51.3058 45.5201 51.2763C44.5778 52.2333 43.4957 52.9842 42.0528 52.9842C40.6173 52.9842 39.5499 52.2407 38.5634 51.2322C37.5843 52.2333 36.5096 52.9842 35.0593 52.9842C33.6238 52.9842 32.549 52.2554 31.5699 51.2395C29.2363 53.5731 26.8953 53.5952 24.5543 51.2542C24.2231 51.534 23.9213 51.8137 23.6047 52.064C22.1177 53.264 20.027 53.286 18.5252 52.1008C18.0762 51.7475 17.6492 51.3499 17.2222 50.9671C16.9572 50.7242 16.9351 50.4224 17.1412 50.1868C17.34 49.9586 17.6565 49.9439 17.9289 50.1647C18.2676 50.4518 18.5988 50.7537 18.9301 51.0481C20.2184 52.1892 21.8526 52.1892 23.1409 51.0628C23.4796 50.7684 23.8035 50.4666 24.1421 50.1795C24.4218 49.9365 24.6795 49.9439 24.9592 50.1795C25.3347 50.5034 25.6954 50.8346 26.0708 51.1585C27.2045 52.1303 28.802 52.1524 29.9504 51.2174C30.3406 50.9009 30.7086 50.5549 31.0914 50.2236C31.4227 49.9292 31.6583 49.9218 31.9895 50.2089C32.3282 50.496 32.6594 50.7978 32.9981 51.0923C34.2201 52.1671 35.8691 52.1744 37.0985 51.107C37.4518 50.7978 37.7978 50.4813 38.1586 50.1721C38.4383 49.9292 38.6959 49.9292 38.9757 50.1721C39.3511 50.496 39.7118 50.8346 40.0873 51.1512C41.2799 52.1524 42.87 52.145 44.0478 51.1512C44.4159 50.842 44.7692 50.5181 45.13 50.2015C45.4392 49.9292 45.6821 49.9292 45.9986 50.2015C46.352 50.5107 46.7053 50.8273 47.0587 51.1291C48.1997 52.1156 49.7898 52.1597 50.9677 51.2101C51.3358 50.9156 51.6744 50.5917 52.0278 50.2825C52.4768 49.885 52.6682 49.885 53.1026 50.2825V50.7021L53.0952 50.7316Z" fill="#896B3B"/>
</svg>
