<svg width="70" height="70" viewBox="0 0 70 70" fill="none" xmlns="http://www.w3.org/2000/svg">
<circle cx="35" cy="35" r="31" stroke="#896B3B" stroke-width="2"/>
<path d="M30.5697 35.1889C31.6884 35.1889 32.7995 35.1889 33.9182 35.1889C34.0324 35.1889 34.1922 35.2498 34.2531 35.1433C34.3292 35.0063 34.1618 34.9149 34.0933 34.8236C33.005 33.4157 31.8939 32.023 30.8285 30.5999C30.5545 30.227 30.2348 30.1204 29.8087 30.0976C28.6823 30.0291 27.5636 29.9226 26.4373 29.8389C25.4099 29.7628 24.3825 29.679 23.3551 29.6106C23.2714 29.6106 23.142 29.5573 23.104 29.6714C23.0887 29.7247 23.1496 29.8236 23.1953 29.8845C24.3749 31.5664 25.5545 33.2483 26.7265 34.9378C26.8635 35.1356 27.0309 35.1965 27.2668 35.1965C28.3703 35.1889 29.4738 35.1965 30.5773 35.1965M20.6458 44.1082C20.6458 41.8023 20.6382 39.4964 20.6458 37.1904C20.6458 36.8251 20.5469 36.7186 20.1816 36.7262C19.3825 36.749 18.591 36.7414 17.792 36.7262C17.3277 36.7186 16.9853 36.3533 17.0005 35.9347C17.0157 35.5162 17.343 35.2118 17.8072 35.1965C17.9137 35.1965 18.0203 35.1965 18.1268 35.1965C20.2425 35.1965 22.3582 35.1965 24.4738 35.1965C24.6184 35.1965 24.8315 35.2726 24.9076 35.1356C24.9761 34.9987 24.7859 34.8693 24.7021 34.7551C23.4464 32.9515 22.1831 31.1478 20.9274 29.3518C20.897 29.3061 20.8589 29.2529 20.8285 29.2072C20.6382 28.9332 20.5697 28.644 20.7372 28.3396C20.9046 28.0352 21.1786 27.9134 21.5134 27.9363C22.5941 28.0124 23.6671 28.0885 24.7478 28.1722C25.8132 28.2559 26.8787 28.3472 27.9441 28.431C28.9259 28.5071 29.9076 28.5755 30.8893 28.6517C31.209 28.6745 31.4221 28.8723 31.6123 29.1159C33.0963 31.0337 34.5879 32.9439 36.072 34.8617C36.2698 35.1128 36.4677 35.2194 36.7873 35.2118C37.3809 35.1889 37.9745 35.1965 38.5682 35.2118C38.7965 35.2118 38.903 35.1813 38.865 34.8921C38.6595 33.4538 39.6793 32.297 41.1404 32.2894C42.2439 32.2894 43.355 32.2894 44.4585 32.2894C44.6945 32.2894 44.8999 32.2437 45.0978 32.1143C45.8512 31.6197 46.6427 31.1935 47.3733 30.6532C48.3094 29.9606 49.3672 29.9226 50.4098 30.4477C51.4372 30.9728 51.9852 31.8632 52.0004 33.0124C52.0232 35.9576 52.0156 38.9104 52.0004 41.8556C52.0004 43.4233 50.6686 44.7247 49.0932 44.7399C47.8604 44.7475 46.6199 44.7475 45.387 44.7399C45.0978 44.7399 44.9076 44.8236 44.7401 45.0671C43.317 47.1295 41.8786 49.1919 40.4479 51.2467C40.3946 51.3228 40.3414 51.4065 40.2881 51.4826C39.9913 51.8936 39.5423 52.0001 39.1694 51.7566C38.7889 51.5055 38.7204 51.0412 39.0248 50.5922C39.4053 50.0291 39.7934 49.4811 40.1815 48.9179C41.3764 47.198 42.5788 45.4857 43.7584 43.7581C44.0324 43.3548 44.3672 43.1798 44.8543 43.1874C46.2089 43.2102 47.5636 43.195 48.9182 43.1874C49.8619 43.1874 50.4555 42.5938 50.4555 41.6577C50.4555 38.8267 50.4555 36.0032 50.4555 33.1722C50.4555 32.5253 50.2043 32.023 49.6031 31.7795C49.0324 31.5436 48.5072 31.6653 48.0202 32.0839C47.457 32.5786 46.7416 32.8525 46.1328 33.2863C45.5316 33.7201 44.8923 33.8647 44.1617 33.8343C43.2257 33.7886 42.282 33.8267 41.3459 33.8267C41.2546 33.8267 41.1557 33.8267 41.0567 33.8267C40.6534 33.8571 40.3718 34.1463 40.3718 34.5116C40.3718 34.8769 40.6534 35.1965 41.0491 35.1965C42.5027 35.2118 43.9487 35.1965 45.4022 35.1965C45.562 35.1965 45.699 35.128 45.836 35.0443C46.0339 34.9302 46.2241 34.8084 46.422 34.7019C47.0461 34.3746 47.6321 34.7019 47.6397 35.4096C47.6549 37.2665 47.6473 39.1158 47.6397 40.9728C47.6397 41.5131 47.32 41.8099 46.7873 41.8099C45.9197 41.8099 45.0521 41.8175 44.1846 41.8099C43.8041 41.8099 43.5377 41.9469 43.317 42.2589C41.6503 44.6181 39.9685 46.9621 38.2942 49.3213C38.0887 49.6105 37.8756 49.8312 37.4875 49.8084C36.9776 49.7779 36.6503 49.3137 36.8102 48.8266C36.8634 48.6668 36.9624 48.5298 37.0537 48.3928C38.7508 46.0108 40.4479 43.6364 42.1374 41.2467C42.594 40.5999 43.2181 40.3031 43.9867 40.2802C44.5803 40.2574 45.1739 40.265 45.7675 40.2802C46.0111 40.2802 46.1024 40.1965 46.1024 39.9454C46.0948 38.9332 46.0948 37.9286 46.1024 36.9165C46.1024 36.7034 46.0339 36.6273 45.8284 36.6882C45.5925 36.7566 45.3566 36.7414 45.1206 36.7414C42.008 36.7414 38.8954 36.7414 35.7752 36.7414C35.2805 36.7414 35.2805 36.7414 35.2805 37.2361V50.7825C35.2805 50.9956 35.2805 51.2087 35.2272 51.4217C35.1283 51.7642 34.8467 51.9925 34.5042 52.0001C34.1466 52.0001 33.8574 51.7718 33.7584 51.4065C33.7052 51.2087 33.7052 51.0108 33.7052 50.8053V37.2894C33.7052 36.9241 33.525 36.7414 33.1648 36.7414C29.6565 36.7414 26.1481 36.7414 22.6473 36.7414C22.1831 36.7414 22.1831 36.7414 22.1831 37.2133V50.9423C22.1831 51.6196 21.8939 52.0077 21.3993 52.0001C20.9122 51.9925 20.6382 51.612 20.6382 50.9575V44.1082" fill="#896B3B"/>
<path d="M35.9346 25.7062C37.9285 25.7062 39.5343 24.1309 39.5419 22.1598C39.5419 20.1811 37.9438 18.5525 35.9879 18.5449C33.9864 18.5373 32.373 20.1355 32.373 22.1294C32.373 24.1309 33.9407 25.7062 35.9346 25.7138M35.9346 27.2587C33.1112 27.312 30.7596 24.8539 30.8205 22.0685C30.8814 19.2603 33.1493 17 35.9803 17C38.8113 17 41.0868 19.3211 41.0792 22.1902C41.0716 24.9908 38.7733 27.2587 35.9422 27.2511" fill="#896B3B"/>
<path d="M46.2011 25.7749C46.2011 26.9621 47.1372 27.9058 48.3168 27.9134C49.466 27.9134 50.4477 26.9317 50.4553 25.7749C50.4553 24.6029 49.504 23.6592 48.3168 23.6592C47.1068 23.6592 46.2011 24.5649 46.2011 25.7749ZM51.9926 25.7825C51.9926 27.7916 50.3183 29.4583 48.3092 29.4507C46.3077 29.4507 44.6106 27.7536 44.6182 25.7749C44.6334 23.7505 46.3229 22.0611 48.332 22.0763C50.3412 22.0915 51.9926 23.7658 51.9926 25.7825Z" fill="#896B3B"/>
<path d="M35.1893 21.0184C35.1893 20.676 35.1893 20.3335 35.1893 19.9834C35.1969 19.5116 35.4937 19.2148 35.9351 19.2072C36.3765 19.1996 36.7038 19.4888 36.719 19.953C36.7418 20.4781 36.7342 20.9956 36.719 21.5207C36.719 21.7414 36.7799 21.9012 36.9397 22.0534C37.2669 22.3655 37.5866 22.6851 37.8986 23.0123C38.2334 23.3624 38.2487 23.8114 37.9442 24.1234C37.6398 24.4431 37.1908 24.4507 36.8331 24.1082C36.3537 23.6516 35.8895 23.1722 35.4176 22.7003C35.2045 22.4872 35.1741 22.2285 35.1817 21.9469C35.1893 21.6349 35.1817 21.3305 35.1817 21.0184" fill="#896B3B"/>
</svg>
